<svg xmlns="http://www.w3.org/2000/svg" viewBox="0 0 500 500"><g id="freepik--Floor--inject-13"><path id="freepik--floor--inject-13" d="M86.46,251.93C-5,304.74-5,390.35,86.46,443.15s239.74,52.8,331.2,0,91.45-138.41,0-191.22S177.91,199.13,86.46,251.93Z" style="fill:#f5f5f5"></path></g><g id="freepik--Plants--inject-13"><path id="freepik--Leaves--inject-13" d="M441.94,339.4c5-5.93,8-12.95,10.6-20.16,3.42-9.47,6.64-19.05,9.35-28.77.27-.94.5-1.9.76-2.85,1.51-.17,5.74-2.62,6.28-3a15.66,15.66,0,0,0,3.66-3.56c3.23-4.45,3.21-12.27,7.87-15.35.29-.21.41-.91-.12-.75-5.33,1.65-11.57,5.85-14.9,11.12,1-4.66,1.81-9.35,2.38-14.09.31-2.61.69-5.28,1-8,3.77-2.87,8.26-4.61,11.35-8.42,2.45-3,3.08-6.88,3.47-10.59,0-.32-.3-.56-.56-.31a36.59,36.59,0,0,1-7.05,5.53,21.08,21.08,0,0,0-4.42,3.11,12.75,12.75,0,0,0-2.08,2.8c.08-1.76.1-3.49.06-5.26.87-3.58,2.64-6.36,3.21-10.1.16-1.09.28-2.19.34-3.29s-.06-2.05-.1-3.1a32.32,32.32,0,0,0-1.5-7.26,46.11,46.11,0,0,0-4.9-11.49c-.36-.58-.89.27-.8.65s.15.76.2,1.13a27.82,27.82,0,0,1,0,8.3,14.51,14.51,0,0,1-.64,3.34,5.16,5.16,0,0,0-.45,1.25c-.1.56-.14,1.13-.28,1.69a10.89,10.89,0,0,0-.29,2c0,.51-.09,1-.15,1.55,0,.21,0,.64-.13.81a3.73,3.73,0,0,1-.69-.84c-.27-.37-.55-.72-.79-1.11-.83-1.29-1.88-2.38-2.71-3.67-.94-1.45-1.85-2.93-2.91-4.29-.41-.51-1.35-1.28-1.4-.13a15.56,15.56,0,0,0,.38,3.11c.1.65.21,1.3.32,1.94.18,1,.29,2,.47,3a36.74,36.74,0,0,0,4.82,12.52c1.8,2.73,3.74,5.38,5.27,8.28a26.32,26.32,0,0,1,1.28,2.88c-.22,2.11-.45,4.24-.68,6.35-.05.09-.1.14-.15.22a.28.28,0,0,0,.09.38c-.24,2.2-.5,4.41-.82,6.62a198.75,198.75,0,0,1-5.54,25c-.19-.81-.43-1.61-.58-2.38a30.44,30.44,0,0,1-.67-7.11c3.2-11.64.69-22.29-5.91-32.36-.3-.46-.84.09-.86.47-.16,6.66-.81,13.39-.07,20-1.49-4.08-3.24-8.12-4.88-12a39,39,0,0,0-2.52-5.44.06.06,0,0,1,0-.06,4.53,4.53,0,0,0-.24-1.16c-.06-.4-.12-.81-.16-1.22-.17-1.77-.27-3.59-.41-5.37-.08-1.09-.17-2.17-.29-3.26-.09-.79-.21-1.54-.37-2.32a14.76,14.76,0,0,0-1.36-4.05c-.75-1.42-1.62-2.76-2.49-4.11-1.31-2-2.81-3.89-4.25-5.83a24.4,24.4,0,0,0-2.43-3.1c-.46-.44-.81-1-1.24-1.42a10.94,10.94,0,0,0-1.3-1.06c-.2-.19-.42-.05-.57.15-.52.29-.13,1,0,1.51a12.52,12.52,0,0,1,.17,2.52c0,.91,0,1.79,0,2.71a29.74,29.74,0,0,0,.93,7,29.34,29.34,0,0,0,2.33,5.86,32.69,32.69,0,0,0,3.67,5.69,50.29,50.29,0,0,0,4.6,4.85c5.87,6.83,7.15,16.47,11.38,24.31.72,3.64,2.14,7.45,5.47,8.86a20.46,20.46,0,0,0,.36,5.3,39.14,39.14,0,0,0,1.06,5.3c-2.37,8.45-5.08,16.79-8,25.06-.94,2.65-1.89,5.3-2.93,7.93-.2-1.83-.51-3.65-.87-5.47a21.27,21.27,0,0,0,2.74-12.06,48.19,48.19,0,0,0-1-6c-.74-3.29-2.7-6.64-2.89-10,0-.64-.73-.4-.9,0-4.36,11.78,1,23.29,2.32,35a53.54,53.54,0,0,1-8.25,14.38C440,338.66,441.19,340.3,441.94,339.4Zm25.23-124.29a25.14,25.14,0,0,0,0-6.25,59.33,59.33,0,0,1,2.53,6.18,68.23,68.23,0,0,1,2.12,6.73,17.93,17.93,0,0,1,.48,2.73c.05.61.07,1.23.14,1.84a13.31,13.31,0,0,1-.08,2.36,18.71,18.71,0,0,1-.53,2.6,28.16,28.16,0,0,1-.79,2.78,44.88,44.88,0,0,0-1.71,5.46,5,5,0,0,0-.23-1.94,16,16,0,0,0-.63-1.8c-.21-.55-.4-1.11-.56-1.67a12,12,0,0,0-.65-1.41,25.55,25.55,0,0,1-1.11-2.78,16.05,16.05,0,0,1-.89-3.74,19,19,0,0,1,.8-6A39.36,39.36,0,0,0,467.17,215.11Zm-7.25,15.39-.21-.48a16.9,16.9,0,0,1-.68-1.71c-.37-1.18-.82-2.33-1.09-3.52-.12-.56-.19-1.12-.28-1.68-.25-1.38-.69-2.75-.85-4.16,0-.22-.23-1.22.16-1.11s.71.92.85,1.14c1,1.58,2.12,3.09,3.14,4.68.54.84,1.07,1.69,1.56,2.56a72.32,72.32,0,0,1,4,7.15,21.09,21.09,0,0,1,1,2.75c.13.53.25,1.06.34,1.58a30.65,30.65,0,0,1,.35,8.56,5.45,5.45,0,0,0-.78-2c-.33-.7-.67-1.36-1.06-2-.7-1.18-1.49-2.34-2.17-3.52a69.59,69.59,0,0,1-4-7.49C460.13,231,460,230.73,459.92,230.5Zm9.53,17.55c1.3-3.31,4.33-5.44,7.38-7.24a29.69,29.69,0,0,0,3.58-2.28c1.41-1.14,1.9-3.3,2-.56.2,4.81-4.91,9-8.46,11.39a44.9,44.9,0,0,0-5,3.22C469.18,251.08,469.33,249.56,469.45,248.05Zm-26.56-3.33c-.48-.49-1-1-1.53-1.52a30.8,30.8,0,0,1-4.36-5.43,26.07,26.07,0,0,1-3.07-6.27,37.51,37.51,0,0,1-1.9-9.23c0-.47-.57-4.42.22-4.32.56.07,1.47,1.34,1.77,1.72,3.68,4.54,7.63,9.33,8.9,15.17a31.47,31.47,0,0,1,.81,5.07c0,1,.08,2,.15,3.06,0,.5.07,1,.12,1.51l.09.76a2.17,2.17,0,0,0,.1.69A8.83,8.83,0,0,0,442.89,244.72Zm11.71,25.52s0-.06,0-.07c-.11-.36-.24-.72-.35-1.08-1.75-7-.66-15.72-.33-22.18a42.74,42.74,0,0,1,5.94,14.2c1.18,5.8-.1,10.65-.93,16.22A15,15,0,0,1,454.6,270.24Zm8.41,16c.59-2.2,1.12-4.43,1.64-6.64a25.48,25.48,0,0,1,8.34-9.74c.69-.5,4.73-2.66,5.9-3.7-.59.81-1.87,2.48-1.9,2.5-1.15,2.22-1.69,4.72-2.67,7a17.16,17.16,0,0,1-6.27,8.12A48.84,48.84,0,0,1,463,286.21Zm-16.13,4.29c.35,1.37.93,2.68,1.38,4a50.52,50.52,0,0,1,2,8.73c.64,4.4-.42,8-1.85,12C446.76,307,444.54,298.75,446.88,290.5Z" style="fill:#e0e0e0"></path><path id="freepik--leaves--inject-13" d="M50.31,309.91a43.91,43.91,0,0,1-6.41-12c1.36-9.58,6-18.88,2.74-28.62-.12-.36-.68-.58-.73-.05-.24,2.74-1.92,5.44-2.61,8.11a42.67,42.67,0,0,0-1,4.86,17.54,17.54,0,0,0,2,9.94c-.33,1.47-.63,3-.84,4.45-.79-2.18-1.5-4.37-2.2-6.56-2.19-6.84-4.2-13.73-5.94-20.71a32.65,32.65,0,0,0,1-4.31,17,17,0,0,0,.41-4.33c2.77-1.07,4-4.15,4.7-7.12,3.65-6.32,4.93-13.68,9.9-19.13a48.73,48.73,0,0,0,4.27-4.35,22.51,22.51,0,0,0,2.93-4.19,27.76,27.76,0,0,0,1.88-5.12,25.44,25.44,0,0,0,.93-5.67c0-.75,0-1.47.09-2.21a10.13,10.13,0,0,1,.2-2.06c.1-.39.44-1,0-1.24-.12-.17-.29-.29-.46-.14a8.79,8.79,0,0,0-1.09.84c-.36.36-.67.78-1,1.13A19.64,19.64,0,0,0,57,213.94c-1.23,1.55-2.5,3-3.62,4.67-.75,1.08-1.5,2.16-2.14,3.31A12.41,12.41,0,0,0,50,225.19c-.15.64-.26,1.25-.35,1.9-.13.89-.22,1.77-.32,2.66a38.85,38.85,0,0,1-.59,4.92,25.11,25.11,0,0,1-1.94,4.68c-.17.39-.34.77-.52,1.16-1.43,3.17-3,6.44-4.28,9.74.77-5.43.4-10.95.43-16.41,0-.31-.44-.77-.69-.4-5.65,8.09-8,16.74-5.62,26.34a25.32,25.32,0,0,1-.72,5.81c-.15.63-.36,1.28-.54,1.93a164,164,0,0,1-3.93-20.62c-.2-1.82-.36-3.63-.51-5.44a.23.23,0,0,0,.08-.32.78.78,0,0,1-.11-.18c-.14-1.73-.28-3.48-.41-5.21a23.69,23.69,0,0,1,1.12-2.33c1.32-2.34,3-4.46,4.52-6.65a25.86,25.86,0,0,0,1.74-3,27.28,27.28,0,0,0,2.5-7.1c.17-.81.29-1.65.46-2.46.1-.52.21-1.05.31-1.58a12.9,12.9,0,0,0,.39-2.54c0-.94-.81-.33-1.15.07-.91,1.1-1.68,2.28-2.49,3.45s-1.59,1.9-2.3,2.94c-.21.31-.45.59-.68.88a2.71,2.71,0,0,1-.59.67,1.6,1.6,0,0,1-.08-.66c0-.43-.07-.85-.09-1.27a8.84,8.84,0,0,0-.18-1.63,12.72,12.72,0,0,1-.19-1.38,4.31,4.31,0,0,0-.35-1,12.81,12.81,0,0,1-.44-2.76,22.75,22.75,0,0,1,.2-6.79c.06-.3.12-.61.19-.92s-.33-1-.63-.55a37.43,37.43,0,0,0-4.29,9.28,25.69,25.69,0,0,0-1.4,5.91c-.06.86-.17,1.67-.16,2.53s.09,1.81.2,2.71c.37,3.07,1.75,5.39,2.38,8.34-.08,1.45-.1,2.87-.08,4.31a10,10,0,0,0-1.64-2.34,16.64,16.64,0,0,0-3.53-2.65,29.53,29.53,0,0,1-5.64-4.7.27.27,0,0,0-.47.24c.23,3,.65,6.24,2.58,8.75,2.44,3.19,6.08,4.72,9.1,7.17.21,2.2.46,4.4.64,6.54.36,3.9.92,7.76,1.61,11.6A23.6,23.6,0,0,0,19.6,249.3c-.43-.14-.35.44-.12.62,3.74,2.63,3.53,9,6.07,12.75a12.75,12.75,0,0,0,2.91,3c.44.32,3.84,2.44,5.07,2.61.19.79.35,1.58.55,2.35,2,8,4.39,15.94,7,23.77,2,6,4.27,11.79,8.19,16.76C49.82,311.92,50.86,310.6,50.31,309.91ZM32.35,213a15.45,15.45,0,0,1,.52,5,13.27,13.27,0,0,1-.82,3c-.28.77-.63,1.52-1,2.25a9.27,9.27,0,0,0-.56,1.14c-.15.46-.32.91-.5,1.36a12.07,12.07,0,0,0-.56,1.45,4.14,4.14,0,0,0-.24,1.58A39.16,39.16,0,0,0,28,224.25a19.21,19.21,0,0,1-.58-2.29,15.46,15.46,0,0,1-.38-2.14,11.43,11.43,0,0,1,0-1.94c.07-.5.1-1,.15-1.5a15.51,15.51,0,0,1,.47-2.23,55.73,55.73,0,0,1,1.89-5.45,48.44,48.44,0,0,1,2.22-5,20.88,20.88,0,0,0-.15,5.12A36.54,36.54,0,0,0,32.35,213Zm4.52,9.18a53.71,53.71,0,0,1-3.43,6c-.58.95-1.25,1.88-1.85,2.84a17.44,17.44,0,0,0-.92,1.63,4.53,4.53,0,0,0-.69,1.64,25.63,25.63,0,0,1,.49-7c.09-.42.2-.86.33-1.28a16.92,16.92,0,0,1,.88-2.23A59.33,59.33,0,0,1,35.11,218c.43-.71.88-1.39,1.34-2.07.87-1.27,1.82-2.48,2.69-3.75.12-.17.47-.86.72-.91s.13.73.11.91c-.17,1.15-.57,2.26-.8,3.39-.09.45-.16.91-.27,1.36-.25,1-.64,1.9-1,2.86-.17.47-.4.93-.6,1.38l-.19.39Zm-7.7,17.29a38.64,38.64,0,0,0-4-2.75c-2.85-2-6.93-5.6-6.65-9.53.17-2.23.52-.46,1.65.51a24.54,24.54,0,0,0,2.87,2c2.45,1.55,4.88,3.37,5.86,6.1C29,237,29.07,238.21,29.17,239.44Zm20.47-4.84c.08-.09.08-.44.1-.56s.07-.41.09-.62c.06-.41.1-.83.14-1.24.08-.83.13-1.66.2-2.49a26.72,26.72,0,0,1,.78-4.14c1.18-4.74,4.53-8.57,7.65-12.2.26-.3,1-1.32,1.5-1.37.64,0,.1,3.16.07,3.55a33.88,33.88,0,0,1-1.67,7.91,18.41,18.41,0,0,1-2.45,4.77,26,26,0,0,1-4,4.22l-1.29,1.21A7.8,7.8,0,0,0,49.64,234.6ZM36.81,260c-.54-4.58-1.48-8.59-.37-13.3a35,35,0,0,1,5.21-11.48c.11,5.3.8,12.46-.81,18.15l-.31.87s0,0,0,.05A12.35,12.35,0,0,1,36.81,260Zm-7.61,5a14,14,0,0,1-4.93-6.79c-.75-1.9-1.13-3.95-2-5.8,0,0-1-1.41-1.49-2.09.94.88,4.19,2.74,4.74,3.17a21,21,0,0,1,6.6,8.17c.36,1.83.75,3.66,1.17,5.47A41.35,41.35,0,0,1,29.2,265Zm15.29,26.25c-1.08-3.29-1.86-6.28-1.23-9.87a42.58,42.58,0,0,1,1.88-7.09c.4-1.08.9-2.14,1.23-3.25C48.09,277.83,46.07,284.52,44.49,291.23Z" style="fill:#e0e0e0"></path><path id="freepik--leaves--inject-13" d="M182.49,32.56c-8.16.17-15.85,2.63-23.39,5.58-9.91,3.86-19.77,8-29.38,12.55-.93.44-1.85.92-2.79,1.38-1.18-1.08-6.07-2.74-6.75-2.91a16.2,16.2,0,0,0-5.37-.43c-5.78.52-12,6-17.67,4.4-.37-.08-1,.31-.52.62,5,3.09,12.69,5.14,19.2,4.11-4.39,2.46-8.7,5.07-12.87,7.91-2.28,1.57-4.67,3.12-7,4.72-4.91-1-9.41-3.37-14.59-3.18-4.08.13-7.61,2.33-10.83,4.6a.35.35,0,0,0,.15.66,38.62,38.62,0,0,1,9.29,1.76,22.23,22.23,0,0,0,5.54,1.36,13.39,13.39,0,0,0,3.67-.29c-1.45,1.15-2.84,2.34-4.22,3.61C81.47,80.8,78,81.32,74.66,83.47c-1,.63-1.94,1.3-2.85,2S70.22,87,69.42,87.72A33.56,33.56,0,0,0,64.68,94,48.42,48.42,0,0,0,59,105.84c-.21.68.83.52,1.07.18s.51-.64.76-1a29.5,29.5,0,0,1,6.6-5.76,15.84,15.84,0,0,1,3.1-1.82,5.36,5.36,0,0,0,1.31-.5c.51-.32,1-.68,1.54-.95a10.65,10.65,0,0,0,1.76-1.15c.44-.33.89-.64,1.34-1,.19-.13.51-.45.73-.46A3.72,3.72,0,0,1,77,94.62c-.11.46-.19.93-.33,1.39-.45,1.56-.59,3.15-1,4.71-.5,1.75-1,3.5-1.39,5.29-.12.68-.08,2,.87,1.21a16.8,16.8,0,0,0,2.21-2.47c.45-.52.88-1.07,1.32-1.6.67-.84,1.4-1.63,2.07-2.47a35.06,35.06,0,0,0,5-8.32,34,34,0,0,0,1.59-4.21c.92-3.33,1.68-6.72,2.92-10a30.76,30.76,0,0,1,1.4-3c1.83-1.29,3.68-2.59,5.53-3.87l.27,0a.3.3,0,0,0,.25-.34c1.92-1.34,3.85-2.67,5.83-4a209.41,209.41,0,0,1,23.76-13c-.51.72-1,1.46-1.49,2.11a31.73,31.73,0,0,1-5.19,5.48C109.11,67.13,102.38,76.52,99,88.78c-.16.55.65.6,1,.35s.91-.75,1.37-1.12c3.53-2.88,7.28-5.38,10.65-8.44a39.13,39.13,0,0,0,8.41-9.89,16.46,16.46,0,0,0,1.8-4.18,8.29,8.29,0,0,0,.21-2.16c0-.19-.35-1.91-.35-1.91a22.21,22.21,0,0,0,4-4,40.84,40.84,0,0,0,3.47-4.54c8.37-4,16.88-7.62,25.48-11,2.77-1.09,5.53-2.19,8.35-3.19-1.32,1.44-2.56,3-3.75,4.49A22.61,22.61,0,0,0,148,49.39a53,53,0,0,0-4,5c-2.1,2.88-3.41,6.76-5.94,9.25-.49.47.18.86.64.69,12.39-4.71,17.82-17,26.25-26.19a56.31,56.31,0,0,1,17.17-3.43C183.28,34.64,183.73,32.53,182.49,32.56ZM66.13,98.86a26.09,26.09,0,0,0-5,4.34,61,61,0,0,1,3.17-6.31,70,70,0,0,1,3.87-6.36A19.31,19.31,0,0,1,70,88.25c.45-.47.92-.91,1.37-1.39a13.31,13.31,0,0,1,1.93-1.58,18.88,18.88,0,0,1,2.44-1.38,26.71,26.71,0,0,1,2.75-1.3,50.44,50.44,0,0,0,5.53-2.44,5.21,5.21,0,0,0-1.38,1.53,15.1,15.1,0,0,0-1,1.75c-.3.55-.61,1.09-.94,1.61a10.45,10.45,0,0,0-.67,1.49,29.91,29.91,0,0,1-1.44,2.82,17.17,17.17,0,0,1-2.36,3.31,19.93,19.93,0,0,1-5.37,3.56A43.37,43.37,0,0,0,66.13,98.86Zm17.28-4.93c-.08.17-.15.34-.23.5-.29.58-.55,1.18-.89,1.73-.68,1.12-1.29,2.27-2.05,3.31-.36.48-.76.93-1.13,1.39-.94,1.16-1.72,2.47-2.72,3.57-.16.17-.81,1-1,.64s.24-1.2.32-1.46c.55-1.91,1-3.84,1.53-5.75.3-1,.61-2,1-3a76.47,76.47,0,0,1,2.92-8.13A21.62,21.62,0,0,1,82.61,84c.32-.47.66-.93,1-1.37a33.15,33.15,0,0,1,6.56-6.23,6,6,0,0,0-1.07,2c-.32.75-.61,1.49-.87,2.26-.46,1.38-.83,2.81-1.3,4.17a70.93,70.93,0,0,1-3.2,8.36C83.62,93.44,83.52,93.69,83.41,93.93Zm7.33-19.77c-3.53,1.26-7.34.33-10.89-.84a32,32,0,0,0-4.29-1.26c-1.89-.33-4,.77-1.86-1.22,3.69-3.5,10.6-2.39,14.93-1.2,2.17.59,4,1.46,6,1.72C93.34,72.27,92,73.2,90.74,74.16Zm28-3.61s-.06,0-.06,0c-.21.33-.41.69-.61,1-4.35,6.26-12,11.45-17.41,15.68a45.21,45.21,0,0,1,7.16-14.59c3.79-5,8.55-7.32,13.55-10.53A15.83,15.83,0,0,1,118.7,70.55Zm6.86-17.79c-2.16,1.06-4.3,2.19-6.42,3.31a27,27,0,0,1-13.54.14c-.88-.2-5.4-1.91-7-2.12,1.06-.09,3.27-.24,3.3-.23,2.58-.62,4.93-1.93,7.43-2.74a18.17,18.17,0,0,1,10.81-.66A53.41,53.41,0,0,1,125.56,52.76Zm14.62,9.85c.85-1.24,1.48-2.6,2.23-3.89A54.33,54.33,0,0,1,147.93,51c3-3.57,6.67-5.24,10.83-6.86C153.37,51.25,148.37,58.74,140.18,62.61Z" style="fill:#e0e0e0"></path></g><g id="freepik--Shadows--inject-13"><path id="freepik--Shadow--inject-13" d="M303.45,370.44h0a.21.21,0,0,0,0-.06h0a1,1,0,0,0-.54-.41.51.51,0,0,0-.17,0c-.23,0-.38.15-.32.35l-.18.09-.09,0-.13.05-.35.11h0c-.6.17-1.49.36-2.55.55-1.68.32-3.74.66-5.6,1l-.43.08-.49.08-.52.1-.38.07-.77.15h-.06c-.65.13-1.21.26-1.71.4l-.32.09-.65.22a10.4,10.4,0,0,0-4,2.8c-.24.24-.5.47-.78.7l-.46.36a34,34,0,0,1-3.82,2.4,3.84,3.84,0,0,0-2.92-.48h0l-2.47.73h0a2.47,2.47,0,0,0-.63.26l-46,26.54a3.68,3.68,0,0,0-2.86.25l-4.2,2.42a3.26,3.26,0,0,0-.79.65l-.12.17-54.28,31.33h0a8.85,8.85,0,0,0-4.24,9.37l-1.44.84h0a2.74,2.74,0,0,0-.54.41.86.86,0,0,0-.13.14,3.57,3.57,0,0,0-.3.38l-.09.16a2.58,2.58,0,0,0-.23.54s0,0,0,.05a3,3,0,0,0-.11.66v0h0a2.8,2.8,0,0,0,.38,1.52,2.84,2.84,0,0,0,3.88,1.05h0l1.45-.84a8.82,8.82,0,0,0,10.23,1h0L228,425.39a3.15,3.15,0,0,0,1.11-.36l4.2-2.42a3.73,3.73,0,0,0,1.65-2.36l46-26.54a2.71,2.71,0,0,0,.54-.42h0l1.87-1.77h0a3.49,3.49,0,0,0,1-2c1.21-.71,2.2-1.28,3-1.74l.58-.32a37.32,37.32,0,0,1,4-1.87l.33-.13,1.53-.6a6.75,6.75,0,0,0,1.14-.6,4,4,0,0,0,.82-.77h0l.11-.16a3,3,0,0,0,.3-.46l0-.06a6.54,6.54,0,0,0,.34-.7c.05-.14.1-.26.15-.38h0c.15-.37.27-.7.38-1a21.91,21.91,0,0,1,2.76-5.58l.45-.69.09-.13c.11-.17.23-.34.34-.49l.06-.09.33-.45,0,0,.32-.42h0c1.13-1.41,1.57-1.43,1.57-1.43C303.48,371.73,303.84,371.07,303.45,370.44Z" style="fill:#e0e0e0"></path><path id="freepik--shadow--inject-13" d="M303,261.11c-26.07,15.05-26.07,39.44,0,54.49s68.32,15,94.38,0,26.06-39.44,0-54.49S329,246.06,303,261.11Z" style="fill:#e0e0e0"></path><path id="freepik--shadow--inject-13" d="M46.33,408.35l58.15,33.57a5.32,5.32,0,0,0,4.79,0L286.5,339.69c1.33-.76,1.33-2,0-2.77l-57.9-33.7a5.23,5.23,0,0,0-4.78,0L46.33,405.58C45,406.34,45,407.58,46.33,408.35Z" style="fill:#e0e0e0"></path><path id="freepik--shadow--inject-13" d="M25.81,422.55c11.69-6.76,30.66-6.76,42.35,0s11.7,17.7,0,24.45-30.66,6.75-42.35,0S14.11,429.3,25.81,422.55Z" style="fill:#e0e0e0"></path><ellipse id="freepik--shadow--inject-13" cx="376.38" cy="402.96" rx="63.48" ry="36.65" style="fill:#e0e0e0"></ellipse></g><g id="freepik--Scales--inject-13"><g id="freepik--scales--inject-13"><path d="M233.57,254.3c-.29,20.44,17.12,31.22,38.23,31.22S310,274.74,310,254.3Z" style="fill:#DDA9B2"></path><path d="M244.77,269.91c-14.93-8.62-14.93-22.6,0-31.22s39.13-8.62,54.06,0,14.93,22.6,0,31.22S259.7,278.53,244.77,269.91Z" style="fill:#DDA9B2"></path><path d="M244.77,269.91c-14.93-8.62-14.93-22.6,0-31.22s39.13-8.62,54.06,0,14.93,22.6,0,31.22S259.7,278.53,244.77,269.91Z" style="fill:#fff;opacity:0.4"></path><path d="M246.71,270.92c14.36,7.24,35.82,7.24,50.18,0,5.1-6,3.34-13.49-5.33-18.49-10.91-6.3-28.61-6.3-39.52,0C243.37,257.43,241.61,264.9,246.71,270.92Z" style="fill:#DDA9B2;opacity:0.5"></path><path d="M261.94,276.29h-.06a.66.66,0,0,1-.6-.72l9.86-107.24a.68.68,0,0,1,.72-.6.66.66,0,0,1,.6.72L262.6,275.69A.66.66,0,0,1,261.94,276.29Z" style="fill:#37474f"></path><path d="M308.71,249.23a.65.65,0,0,1-.6-.39L271.2,168.67a.66.66,0,0,1,1.2-.56l36.91,80.18a.66.66,0,0,1-.32.88A.67.67,0,0,1,308.71,249.23Z" style="fill:#37474f"></path><path d="M244.77,239.36a.69.69,0,0,1-.24-.05.66.66,0,0,1-.39-.86l27-70.3a.66.66,0,0,1,.86-.38.67.67,0,0,1,.38.86l-27,70.3A.67.67,0,0,1,244.77,239.36Z" style="fill:#37474f"></path><path d="M387.09,165.48c-.29,20.44,17.12,31.22,38.23,31.22s38.23-10.78,38.23-31.22Z" style="fill:#DDA9B2"></path><path d="M398.29,181.09c-14.93-8.62-14.93-22.6,0-31.22s39.14-8.62,54.07,0,14.93,22.6,0,31.22S413.22,189.71,398.29,181.09Z" style="fill:#DDA9B2"></path><path d="M398.29,181.09c-14.93-8.62-14.93-22.6,0-31.22s39.14-8.62,54.07,0,14.93,22.6,0,31.22S413.22,189.71,398.29,181.09Z" style="fill:#fff;opacity:0.4"></path><path d="M400.23,182.1c14.36,7.24,35.82,7.24,50.18,0,5.1-6,3.34-13.49-5.33-18.49-10.91-6.3-28.61-6.3-39.52,0C396.89,168.61,395.13,176.08,400.23,182.1Z" style="fill:#DDA9B2;opacity:0.5"></path><path d="M415.46,187.47h-.06a.66.66,0,0,1-.6-.72l9.86-107.24a.67.67,0,0,1,.72-.6.66.66,0,0,1,.6.72l-9.86,107.24A.65.65,0,0,1,415.46,187.47Z" style="fill:#37474f"></path><path d="M462.24,160.41a.67.67,0,0,1-.61-.39L424.72,79.85a.67.67,0,0,1,1.21-.56l36.91,80.18a.67.67,0,0,1-.32.88A.71.71,0,0,1,462.24,160.41Z" style="fill:#37474f"></path><path d="M398.29,150.54a.69.69,0,0,1-.24,0,.67.67,0,0,1-.38-.86l27-70.3a.66.66,0,1,1,1.24.48l-27,70.3A.66.66,0,0,1,398.29,150.54Z" style="fill:#37474f"></path><path d="M429.85,68.71c-.07,3.32-2.11,7.23-4.54,8.63a2.14,2.14,0,0,1-2.07.27c-.71-.41-1.14-1.55-1.14-3.06a11.86,11.86,0,0,1,1.77-5.84h-3a14,14,0,0,0-1.39,5.84c0,2.51.9,4.46,2.47,5.37a4,4,0,0,0,2,.53,5.48,5.48,0,0,0,2.74-.81c3.25-1.87,5.8-6.64,5.87-10.93Z" style="fill:#455a64"></path><g id="freepik--Base--inject-13"><path d="M375.77,262.34c-14.43-8.33-37.83-8.33-52.25,0-7.22,4.17-10.8,9.63-10.79,15.09v5.65c0,5.46,3.57,10.92,10.79,15.08,14.43,8.33,37.82,8.33,52.25,0,7.22-4.16,10.8-9.62,10.79-15.08,0-1.69,0-4,0-5.65C386.57,272,383,266.51,375.77,262.34Z" style="fill:#263238"></path><path d="M323.52,262.34c-14.43,8.34-14.43,21.84,0,30.17s37.82,8.33,52.25,0,14.43-21.83,0-30.17S338,254,323.52,262.34Z" style="fill:#455a64"></path><path d="M371.24,255.33c-11.93-6.88-31.27-6.88-43.19,0-6,3.45-8.93,8-8.92,12.47v8.31c0,4.52,2.95,9,8.92,12.47,11.92,6.89,31.26,6.89,43.19,0,6-3.44,8.93-7.95,8.92-12.47,0-1.39,0-6.91,0-8.31C380.17,263.29,377.2,258.78,371.24,255.33Z" style="fill:#37474f"></path><path d="M328.05,255.33c-11.93,6.89-11.93,18,0,24.94s31.26,6.89,43.19,0,11.93-18,0-24.94S340,248.44,328.05,255.33Z" style="fill:#455a64"></path></g><path d="M278.3,157h-2.68a5.94,5.94,0,0,1,.06.87c0,3.35-2.08,7.38-4.55,8.81a2.19,2.19,0,0,1-2.08.27c-.7-.41-1.13-1.55-1.13-3.06a10.55,10.55,0,0,1,.71-3.64h-2.82a13.12,13.12,0,0,0-.55,3.64c0,2.5.89,4.46,2.46,5.37a4,4,0,0,0,2,.53,5.48,5.48,0,0,0,2.74-.81c3.29-1.9,5.87-6.78,5.87-11.11A8.19,8.19,0,0,0,278.3,157Z" style="fill:#455a64"></path><path d="M373.86,262.4c0-3.58-2.37-7.16-7.09-9.89-9.46-5.46-24.79-5.46-34.25,0-4.73,2.73-7.09,6.31-7.09,9.89v2.86c0,3.58,2.36,7.16,7.09,9.89,9.46,5.46,24.79,5.46,34.25,0,4.72-2.73,7.09-6.31,7.09-9.89Z" style="fill:#37474f"></path><path d="M366.77,252.51c-1.66-1-4.22-5.24-5.39-10.9-2.72-13.16-2.69-34.28-.48-42.28H338.38c2.22,8,2.25,29.12-.47,42.28-1.17,5.66-3.73,9.85-5.39,10.9h0c-4.73,2.73-7.09,6.31-7.09,9.89s2.36,7.16,7.09,9.89c9.46,5.46,24.79,5.46,34.25,0,4.72-2.73,7.09-6.31,7.09-9.89S371.49,255.24,366.77,252.51Z" style="fill:#455a64"></path><g style="opacity:0.15"><path d="M343.09,204.11c0,5.12-.29,41.84-3.6,46.5s-7.07,5-9.6,9,1.46,9.56,7.47,11.38a7.38,7.38,0,0,1-1.85-3.84s4,4.7,12.92,3.84c-7.88-1.34-11-7.3-9.33-10.21,1.78-3.07,4.66-4.07,6.29-9.47,1.26-4.17,1.24-46.54,1.24-46.54A21.56,21.56,0,0,1,343.09,204.11Z" style="fill:#fff"></path></g><g style="opacity:0.15"><path d="M353.5,204.68c.29,8.73.48,43.52,3,47.71,2,3.27,3.22,5.13,3.63,8.77s-2.85,6.78-5.26,7.58a12,12,0,0,0,6-2.23s-2,4.1-9.93,6c5.34.35,13.86-1.16,18.6-7.12,4-5.05-.17-7.44-3.55-9.4s-5.15-3.71-6.78-8.34c-3.57-10.13-2-43.82-2-43.82A22.31,22.31,0,0,1,353.5,204.68Z"></path></g><g style="opacity:0.25"><path d="M359.93,204.2a34.33,34.33,0,0,1,1-4.87H338.38a31.74,31.74,0,0,1,1,4.87C345.16,207.32,354.12,207.32,359.93,204.2Z"></path></g><path d="M338.92,202.41c-3-1.71-4.44-3.95-4.44-6.19s1.48-4.48,4.44-6.19c5.92-3.42,15.52-3.42,21.44,0,3,1.71,4.44,3.95,4.44,6.19s-1.48,4.48-4.44,6.19C354.44,205.83,344.84,205.83,338.92,202.41Z" style="fill:#37474f"></path><g style="opacity:0.25"><path d="M363.78,193.06a10.1,10.1,0,0,0-3.42-3c-5.92-3.42-15.52-3.42-21.44,0a10.15,10.15,0,0,0-3.41,3c.38,1.75,1.72,3.44,4.05,4.78,5.57,3.22,14.6,3.22,20.17,0C362.05,196.5,363.39,194.81,363.78,193.06Z"></path></g><path d="M339.56,195.82c-2.79-1.6-4.18-3.71-4.18-5.82s1.39-4.22,4.18-5.82c5.57-3.22,14.6-3.22,20.17,0,2.78,1.6,4.18,3.71,4.18,5.82s-1.4,4.22-4.18,5.82C354.16,199,345.13,199,339.56,195.82Z" style="fill:#37474f"></path><g style="opacity:0.25"><path d="M362.9,187a9.66,9.66,0,0,0-3.17-2.78c-5.57-3.22-14.6-3.22-20.17,0a9.56,9.56,0,0,0-3.17,2.78,7.26,7.26,0,0,0,3.8,4.52c5.22,3,13.68,3,18.9,0A7.25,7.25,0,0,0,362.9,187Z"></path></g><path d="M340.19,189.24c-2.61-1.51-3.91-3.48-3.91-5.46s1.3-3.95,3.91-5.45c5.22-3,13.68-3,18.9,0,2.61,1.5,3.92,3.48,3.92,5.45s-1.31,3.95-3.92,5.46C353.87,192.25,345.41,192.25,340.19,189.24Z" style="fill:#37474f"></path><g style="opacity:0.25"><path d="M361.93,180.75a9,9,0,0,0-2.84-2.42c-5.22-3-13.68-3-18.9,0a9.07,9.07,0,0,0-2.83,2.42,7,7,0,0,0,3.47,3.9c4.87,2.81,12.76,2.81,17.63,0A7,7,0,0,0,361.93,180.75Z"></path></g><g style="opacity:0.15"><path d="M360.72,195.19c2-1.59.66-5.3-.93-6.38,1.74-2,.79-4.79-1.33-6.16a15.46,15.46,0,0,1-4.18,1.6c2.12,1.36,3.16,4.42,1.42,6.41,1.59,1.09,2.95,4.93.91,6.53,1.43,1.21,3,4.59.61,6.61a16.07,16.07,0,0,0,4.08-2C363.65,199.8,362.16,196.4,360.72,195.19Z"></path></g><g style="opacity:0.15"><path d="M338.56,195.19c-2-1.59-.66-5.3.93-6.38-1.73-2-.79-4.79,1.34-6.16a15.21,15.21,0,0,0,4.18,1.6c-2.13,1.36-3.16,4.42-1.42,6.41-1.59,1.09-3,4.93-.91,6.53-1.44,1.21-3,4.59-.62,6.61a15.84,15.84,0,0,1-4.07-2C335.63,199.8,337.13,196.4,338.56,195.19Z" style="fill:#fff"></path></g><path d="M360,173.57c-.58-.52-2.2-4.47-2.69-10.59-1.65-20.81-1.64-47.59-1.64-67.93H343.6c0,20.33,0,47-1.64,67.87-.49,6.15-2.12,10.14-2.7,10.66a5.32,5.32,0,0,0-2.09,4c0,1.85,1.22,3.69,3.66,5.09,4.86,2.82,12.76,2.82,17.63,0,2.43-1.4,3.65-3.24,3.65-5.09A5.36,5.36,0,0,0,360,173.57Z" style="fill:#455a64"></path><g style="opacity:0.15"><path d="M358.46,174.48c-1.74-2.81-3-4.68-3.57-11.57-.5-6.37-.08-65.89,0-67.86H354l-1.09.34c0,9.58-.63,69.89.8,75.14s4.7,10.5.53,13.72a15.25,15.25,0,0,0,4.18-1.6C360.8,179.83,360.2,177.29,358.46,174.48Z"></path></g><g style="opacity:0.15"><path d="M340.83,174.48c1.74-2.81,3-4.68,3.57-11.57.5-6.37.07-65.89,0-67.86h.84l1.09.34c0,9.58.63,69.89-.81,75.14s-4.7,10.5-.52,13.72a15.13,15.13,0,0,1-4.18-1.6C338.49,179.83,339.09,177.29,340.83,174.48Z" style="fill:#fff"></path></g><g style="opacity:0.25"><path d="M343.59,98.39a10.46,10.46,0,0,0,12.11,0c0-1.07,0-2.18,0-3.34H343.6C343.6,96.21,343.59,97.31,343.59,98.39Z"></path></g><path d="M360.18,87.19a10.54,10.54,0,1,1-10.54-10.54A10.54,10.54,0,0,1,360.18,87.19Z" style="fill:#37474f"></path><g style="opacity:0.15"><path d="M347.21,92.65a8.05,8.05,0,0,1-4.68-5.2,11.81,11.81,0,0,1-.23-4.88,11,11,0,0,1,.64-2.33,9.13,9.13,0,0,1,.49-1.11,3.21,3.21,0,0,1,.46-.76,10.53,10.53,0,1,0,16.29,8.82C359,90.53,353.36,95.35,347.21,92.65Z"></path></g><g style="opacity:0.15"><path d="M358.15,86.93c-1,2.82-1.36-1.27-6.07-4.27-3.84-2.44-8.39-1.93-5.92-3.64,2-1.38,5.21-1.4,8.24.25S358.92,84.81,358.15,86.93Z" style="fill:#fff"></path></g><path d="M348.9,73.51v0q-2.08,1.13-4.08,2.35c-14.53,8.23-30.07,16.64-35.41,26a35,35,0,0,0-4.16,11.34c-3.9,5-7.66,10-11.37,15-2.82,3.83-5.6,7.65-8.47,11.36l-.2.15c-.19.11-.29.2-.26.27s0,.2-.2.12a3.31,3.31,0,0,1-1.08-2,11.28,11.28,0,0,1-.38-3.07,9.43,9.43,0,0,1,.49-3.2l0,0a.39.39,0,0,0-.08-.38.37.37,0,0,0-.52,0,8.94,8.94,0,0,0-2.13,3.12,13.4,13.4,0,0,0-1,3.75,7.87,7.87,0,0,0,.75,4.57,5.06,5.06,0,0,0,1,1.24c-1.95,2.38-4,4.68-6.07,6.81a46.17,46.17,0,0,1-7,6c-2.46,1.84-4.28,2.08-5.41,1.21a4.39,4.39,0,0,1-1.28-2.57,13,13,0,0,1-.1-4.06,19.61,19.61,0,0,1,1-4.24,18.09,18.09,0,0,1,1.9-3.9,10.31,10.31,0,0,1,2.75-2.89,4.74,4.74,0,0,1,1.47-.65,1.84,1.84,0,0,1,1.11.11,1.71,1.71,0,0,1,.79.9,5.08,5.08,0,0,1,.4,1.81,11.44,11.44,0,0,1-.6,4.23,10.41,10.41,0,0,1-2.07,3.79,4.74,4.74,0,0,1-1.53,1.15,1.5,1.5,0,0,1-1.36,0l-.09-.06a1.05,1.05,0,0,0-1.34.25,1,1,0,0,0,.18,1.46,3.34,3.34,0,0,0,1.65.7,4.15,4.15,0,0,0,1.7-.14,7.05,7.05,0,0,0,2.57-1.51,13.12,13.12,0,0,0,3.14-4.53,14.1,14.1,0,0,0,1.24-5.4,8.89,8.89,0,0,0-.44-3,5.88,5.88,0,0,0-.8-1.58,4.93,4.93,0,0,0-1.4-1.33,5.64,5.64,0,0,0-3.64-.86,8.23,8.23,0,0,0-3.15,1,14.45,14.45,0,0,0-4.35,3.87,23.28,23.28,0,0,0-2.77,4.78,24.36,24.36,0,0,0-1.63,5.26,18.18,18.18,0,0,0-.23,5.78,12.12,12.12,0,0,0,.85,3.12,8.83,8.83,0,0,0,2.11,3,8.71,8.71,0,0,0,7,2.09,11.6,11.6,0,0,0,3.21-.9,13,13,0,0,0,1.4-.68l1.17-.69c6.18-3.76,11-8.76,15.47-13.76q2.41-2.74,4.72-5.52A7.69,7.69,0,0,0,294,141.5a11.89,11.89,0,0,0,1.08-1.67c6-7.37,11.65-14.85,17.64-22,8.35-9.92,17.14-19.39,27.2-27.06a105.21,105.21,0,0,1,9-6.15V73.51h0ZM308.56,109c.21-1.41,1.05-4,4-7.78,4.54-5.79,11.41-10.46,15.74-13A175.32,175.32,0,0,0,308.56,109Z" style="fill:#455a64"></path><path d="M440.07,43.9a8,8,0,0,0-2.42-2.74,6.19,6.19,0,0,0-4-1.1,8.12,8.12,0,0,0-3.38,1.08A12.56,12.56,0,0,0,427.78,43a17.85,17.85,0,0,0-3.32,4.61A16.9,16.9,0,0,0,422.72,53a10.47,10.47,0,0,0,.74,6,4.89,4.89,0,0,0,2.93,2.63,4.39,4.39,0,0,0,2.12.07,5.89,5.89,0,0,0,1.64-.72,6.94,6.94,0,0,0,2.13-2.16,8.39,8.39,0,0,0,1.1-2.57.9.9,0,0,0-1.53-.83l0,0A10.1,10.1,0,0,1,428.51,58a1.91,1.91,0,0,1-.66.15.69.69,0,0,1-.32-.07,2.24,2.24,0,0,1-.51-.72,6.81,6.81,0,0,1-.1-3.65,12.5,12.5,0,0,1,1.54-3.89,13,13,0,0,1,2.63-3.23,4.72,4.72,0,0,1,2.81-1.38.92.92,0,0,1,.63.24,2.93,2.93,0,0,1,.72,1,8.26,8.26,0,0,1,.56,3.54,18.27,18.27,0,0,1-2.35,8,20.49,20.49,0,0,1-5.37,6.45,11.1,11.1,0,0,1-1.61,1c-.65.34-1.3.66-2,.93a24.07,24.07,0,0,1-4.05,1.27,26.12,26.12,0,0,1-4,.51,16.48,16.48,0,0,0,.67-2,15.29,15.29,0,0,0,.43-3.84,12.51,12.51,0,0,0-.62-3.73,6.88,6.88,0,0,0-.86-1.74,2.44,2.44,0,0,0-1.75-1.18.33.33,0,0,0-.31.15.34.34,0,0,0,.08.49l.09.07a1.54,1.54,0,0,1,.49,1.1,5.33,5.33,0,0,1,0,1.44,10.52,10.52,0,0,1-.72,2.87,11.58,11.58,0,0,1-1.31,2.55,10.08,10.08,0,0,1-1.7,2.05,6.18,6.18,0,0,1-2.17,1.19,3.68,3.68,0,0,0-.35.15c-4.92-.65-10.1-1.81-15.53-2.51-.27-3.15-1.3-7.12-4.54-9.05-5.82-3.44-23.71,8.16-39.21,17.13l-.29.15V84.65a71.6,71.6,0,0,1,24.25-9.85,65.23,65.23,0,0,1,18.34-.62c6.28.56,12.76,1.89,19.91,2.1A36.64,36.64,0,0,0,422.32,75a32.28,32.28,0,0,0,5.24-2c.83-.41,1.65-.86,2.43-1.33a18.1,18.1,0,0,0,2.47-1.76,27,27,0,0,0,6.68-9A24.21,24.21,0,0,0,441.57,50,13.37,13.37,0,0,0,440.07,43.9ZM389.26,63.65c-5.15-.77-16.77,0-23.33,2.95l-.25.07c1.66-1.07,13-8.21,19.55-7.4C389.91,59.84,389.26,63.65,389.26,63.65Z" style="fill:#455a64"></path><path d="M348.9,41.39c-6.2,3.58-11.23,13.19-11.23,21.49s5,15,11.23,11.43,11.26-16.14,11.26-24.41S355.13,37.8,348.9,41.39Zm0,4.19c4.49-2.59,8.11.15,8.11,6.13a20.62,20.62,0,0,1-.44,4.09c-.52-4.73-3.77-6.68-7.67-4.43s-7.1,7.93-7.65,13.24a15.18,15.18,0,0,1-.44-3.54C340.81,55.09,344.44,48.16,348.9,45.58Z" style="fill:#455a64"></path><polygon points="348.93 56.57 352.47 60.05 348.89 68.07 345.36 64.11 348.93 56.57" style="fill:#DDA9B2"></polygon><path d="M350.37,63l-1.13,2.35-.15-6.45,1.31,1.37A2.63,2.63,0,0,1,350.37,63Z" style="fill:#fff;opacity:0.6000000000000001"></path></g></g><g id="freepik--Parchment--inject-13"><g id="freepik--Document--inject-13"><path d="M64.16,173.72c.5,4.66-.88,8.06-3.29,9.45a6,6,0,0,1-5.51,0c-6.8-2.95-12.92-13-13.65-22.54-.56-7.33,1.57-12.66,5.28-14.8,2.3-1.33,5.21-1.43,8.47,0,5.31,2.31,10.64,7.48,14.64,13.89l-9.56,5.51S63.47,167.27,64.16,173.72Z" style="fill:#e0e0e0"></path><path d="M64.16,173.72c.5,4.66-.88,8.06-3.29,9.45a6,6,0,0,1-5.51,0c-6.8-2.95-12.92-13-13.65-22.54-.56-7.33,1.57-12.66,5.28-14.8,2.3-1.33,5.21-1.43,8.47,0,5.31,2.31,10.64,7.48,14.64,13.89l-9.56,5.51S63.47,167.27,64.16,173.72Z" style="opacity:0.1"></path><path d="M242.3,71c-.69-6.46-3.62-8.49-3.62-8.49L60.54,165.24s2.93,2,3.62,8.48c.49,4.66-.89,8.06-3.29,9.45L239,80.41C241.43,79,242.79,75.62,242.3,71Z" style="fill:#e0e0e0"></path><path d="M242.3,71c-.69-6.46-3.62-8.49-3.62-8.49L60.54,165.24s2.93,2,3.62,8.48c.49,4.66-.89,8.06-3.29,9.45L239,80.41C241.43,79,242.79,75.62,242.3,71Z" style="opacity:0.30000000000000004"></path><path d="M76.79,381.91V181.07h0c0-14.51-10.7-30.61-21.33-35.23-8.51-3.69-14.66,2.94-13.75,14.82.73,9.49,6.84,19.59,13.65,22.54,5.45,2.36,9.61-1.9,8.8-9.48-.69-6.45-3.62-8.48-3.62-8.48l-1.76,2.55-.1-.07c.08.06,1.9,1.6,2.4,6.33.37,3.53-.56,5.57-1.56,6.31a2.84,2.84,0,0,1-2.92,0c-5.76-2.5-11.16-11.63-11.8-19.94-.42-5.49.83-9.83,3.35-11.63,1.59-1.13,3.63-1.16,6.08-.1,9.18,4,19.43,18.68,19.43,32.38V381.91a62.52,62.52,0,0,0,31.16,54l1.56.89v-3.6A59.21,59.21,0,0,1,76.79,381.91Z" style="fill:#455a64"></path><polygon points="106.38 436.78 284.53 334.04 284.53 330.44 106.38 433.18 106.38 436.78" style="fill:#263238"></polygon><path d="M254.93,279.17V78.33c0-14.51-10.69-30.61-21.33-35.23-3.26-1.41-6.17-1.31-8.48,0L47,145.86c2.3-1.33,5.21-1.43,8.47,0,10.63,4.62,21.32,20.72,21.32,35.23h0V381.91a59.21,59.21,0,0,0,29.59,51.27L284.53,330.44A59.21,59.21,0,0,1,254.93,279.17Z" style="fill:#f5f5f5"></path><path d="M233.6,43.1c-3.26-1.41-6.17-1.31-8.48,0L47,145.86c2.3-1.33,5.21-1.43,8.47,0,4.23,1.84,8.46,5.49,12,10.14L245.64,53.24C242.07,48.59,237.83,44.94,233.6,43.1Z" style="fill:#fafafa"></path><path d="M229.09,43.08a10.42,10.42,0,0,1,4.11.94c9.79,4.24,20.73,19.82,20.73,34.31V279.17a60.36,60.36,0,0,0,28.63,51.25L106.38,432a58.37,58.37,0,0,1-28.59-50.11V180.81h0c-.12-14.13-10.32-30.84-21.92-35.87a13.17,13.17,0,0,0-3.51-1L225.62,44a6.85,6.85,0,0,1,3.47-.9m0-1a7.84,7.84,0,0,0-4,1L47,145.86a7.77,7.77,0,0,1,4-1,11.42,11.42,0,0,1,4.51,1c10.63,4.62,21.32,20.72,21.32,35.23h0V381.91a59.21,59.21,0,0,0,29.59,51.27L284.53,330.44a59.21,59.21,0,0,1-29.6-51.27V78.33c0-14.51-10.69-30.61-21.33-35.23a11.38,11.38,0,0,0-4.51-1Z" style="fill:#e0e0e0"></path><path d="M98.76,169.37v-.75l3.66-2.12v.76l-1.69,1.21-.29.17Zm4.39,6.36c1.23-.71,1.91-2.1,1.91-4.75v-6l.69-.4v6.2c0,3.4-1.21,5.45-3,6.5s-3,.49-3-2.57V173c0-1.62,0-3.27,0-4.89l1.64-.94c0,1.62,0,3.27,0,4.93v1.25C101.28,175.94,102,176.42,103.15,175.73Zm2-9.88-1.3.56v-.76l2.89-1.66v.75l-1.29.94Z" style="fill:#455a64"></path><path d="M108,174c0-.73,0-2.4,0-3.4v-.84c0-.89,0-1.3,0-1.93l-.85.35v-.6l2-2.18.2.05.13,1.75v2.56c0,1,0,2.65,0,3.36Zm2.22-1.94v.66l-3,1.72v-.65l1.23-1,.58-.34ZM113.1,166v1.68c0,1,0,2.65,0,3.36l-1.53.89c0-.74,0-2.38,0-3.41V167c0-1.26-.25-1.55-.85-1.2a5.25,5.25,0,0,0-1.63,2.09l-.34.2v-.89l.72-.41-.49.65a6.72,6.72,0,0,1,2.4-3.36C112.5,163.43,113.1,164,113.1,166Zm-.45,4.34,1.2-.37v.66l-3,1.73v-.66l1.21-1Z" style="fill:#455a64"></path><path d="M115.32,169.73c0-.74,0-2.4,0-3.4v-.76c0-.89,0-1.38,0-2l-.87.36v-.6l2.19-2.28.19.05,0,2.28v2.13c0,1,0,2.65,0,3.36Zm2.22-1.94v.66l-3,1.73v-.66l1.22-1,.58-.33Zm-2.39-8.54a2,2,0,0,1,.91-1.68c.51-.29.91-.06.91.62a2,2,0,0,1-.91,1.68C115.55,160.16,115.15,159.92,115.15,159.25Z" style="fill:#455a64"></path><path d="M118.83,161l-1.14.37v-.66l3.17-1.83v.66l-1.29,1Zm.86-1.45,1.73,5.14-.66,1.67,1.92-8.54.75-.43-2.22,9-.71.41-2.44-6.36Zm3-.8-1.1.38v-.67l2.28-1.32v.67l-.92.79Z" style="fill:#455a64"></path><path d="M129.42,156.9a5,5,0,0,1-.07.92l-4.6,2.65v-.76l2.57-1.48a1.33,1.33,0,0,0,.72-1.33c0-1-.48-1.39-1.07-1.05s-1.31,1.56-1.31,3.87c0,2,.75,2.56,1.8,1.95a4.18,4.18,0,0,0,1.58-1.91l.35.21a5.6,5.6,0,0,1-2.43,3.27c-1.69,1-2.84.12-2.84-2.4a7,7,0,0,1,2.94-5.82C128.48,154.2,129.42,155,129.42,156.9Z" style="fill:#455a64"></path><path d="M131.1,157.24v-.85c0-.89,0-1.29,0-1.92l-.85.35v-.6l2-2.19.2.06.13,1.92v2.39c0,1,0,2.65,0,3.36l-1.52.88C131.09,159.9,131.1,158.24,131.1,157.24Zm-.79,3.18,1.24-1,.77-.44,1.24-.39v.65l-3.25,1.88Zm1.56-5.77.79-.46-.23.41c.3-1.91,1.09-3.31,1.81-3.72.44-.26.83-.18.95.32a1.87,1.87,0,0,1-.78,1.69.63.63,0,0,1-.83-.09l-.34-.3.54-.27a7.61,7.61,0,0,0-1.24,3.11l-.67.34Z" style="fill:#455a64"></path><path d="M135.61,157.57V155.7l.8-.46.3,1.85-.63,0v-.61a1.68,1.68,0,0,0,1.5-.21,2.11,2.11,0,0,0,1.22-1.79c0-.6-.3-.77-1.07-.67l-.61.09c-.91.13-1.46-.28-1.46-1.44a4.56,4.56,0,0,1,2.3-3.76,2.56,2.56,0,0,1,1.8-.39l-.06,1.74-.79.45-.3-1.64h.56v.5a1.32,1.32,0,0,0-1.24.15,1.86,1.86,0,0,0-1,1.59c0,.58.24.74,1.06.63l.48-.08c1.18-.15,1.64.38,1.64,1.48a4.75,4.75,0,0,1-2.54,4A2.9,2.9,0,0,1,135.61,157.57Z" style="fill:#455a64"></path><path d="M143.06,149.36c.5-.5,1.31-1.27,1.9-1.77v.63a18.53,18.53,0,0,0-1.6,1.57,3.31,3.31,0,0,0-1.05,2.23c0,.83.37,1,.85.69.32-.19.54-.48,1.11-1.35l.36-.58.15.2-.43.85a5.21,5.21,0,0,1-1.85,2.44c-.91.52-1.6.22-1.6-1.11C140.9,152.13,141.31,151.12,143.06,149.36Zm1.15,2.3V147.8c0-1.5-.27-1.74-1.06-1.29a5.06,5.06,0,0,0-1.11.9l.66-.95-.2,1.37a1.83,1.83,0,0,1-.75,1.55c-.38.22-.62.1-.68-.33a4.9,4.9,0,0,1,2.56-3.59c1.4-.81,2-.35,2,1.75v3.51c0,.52.14.64.36.51a1.1,1.1,0,0,0,.42-.59l.28.16a2.75,2.75,0,0,1-1.24,1.73C144.7,153,144.26,152.61,144.21,151.66Z" style="fill:#455a64"></path><path d="M149.18,138.38l.19,0-.05,2.3v6c0,1.13,0,2.25,0,3.36l-1.53.88c0-1.14,0-2.27,0-3.4v-6.91L147,141v-.62Zm1,10.58v.66L147,151.43v-.66l1.26-1.05.58-.33Z" style="fill:#455a64"></path><path d="M153.63,137.69v-.75l1.82-1.05v1l-.16.09Zm1.82,7.88v1l-1.82,1.05v-.76l1.66-1.2Zm-.79-4.24c0-1.66,0-3.33,0-5l1.64-1c0,1.65,0,3.32,0,5V141c0,1.78,0,3.46,0,5.09l-1.64.95c0-1.65,0-3.32,0-5.13Zm.79,4.4,1.49-.86c1.64-1,2.58-3.13,2.58-6s-.94-4-2.51-3.06l-1.56.9v-.83l1.75-1c2.44-1.4,4-.36,4,3a8.92,8.92,0,0,1-4.24,7.79l-1.52.89Z" style="fill:#455a64"></path><path d="M167.45,134.94a5,5,0,0,1-.08.93l-4.59,2.65v-.76l2.56-1.48a1.34,1.34,0,0,0,.72-1.33c0-1-.47-1.39-1.07-1s-1.31,1.55-1.31,3.87c0,2,.75,2.55,1.8,1.95a4.17,4.17,0,0,0,1.58-1.91l.35.2a5.6,5.6,0,0,1-2.42,3.27c-1.69,1-2.85.13-2.85-2.39a7,7,0,0,1,2.94-5.82C166.5,132.25,167.45,133,167.45,134.94Z" style="fill:#455a64"></path><path d="M169.86,134.19c0,1.94.74,2.57,1.81,1.95a3.92,3.92,0,0,0,1.53-1.95l.35.14a5.22,5.22,0,0,1-2.36,3.37c-1.65,1-2.85.17-2.85-2.41a7,7,0,0,1,3-5.85c1.18-.68,2.07-.22,2.19.95a1.43,1.43,0,0,1-.68,1.11c-.44.26-.71.06-.79-.67l-.2-1.17.72.22a1.89,1.89,0,0,0-1.12.27C170.61,130.65,169.86,132.07,169.86,134.19Z" style="fill:#455a64"></path><path d="M176.22,122.77l.18,0-.05,2.3v6c0,1.13,0,2.25,0,3.36l-1.53.88c0-1.14,0-2.27,0-3.4V125l-.87.35v-.63Zm1,10.58V134l-3.14,1.81v-.66l1.26-1,.58-.33Z" style="fill:#455a64"></path><path d="M180,128c.51-.51,1.32-1.27,1.9-1.77v.62a19.84,19.84,0,0,0-1.59,1.57,3.31,3.31,0,0,0-1.06,2.23c0,.83.37,1,.85.7.33-.19.54-.48,1.11-1.36l.37-.58.15.2-.43.85a5.11,5.11,0,0,1-1.86,2.44c-.91.53-1.6.22-1.6-1.11C177.83,130.81,178.25,129.8,180,128Zm1.15,2.29v-3.85c0-1.5-.27-1.75-1-1.3a5.38,5.38,0,0,0-1.11.9l.66-.94-.2,1.36a1.91,1.91,0,0,1-.75,1.56c-.38.21-.62.1-.68-.34a4.93,4.93,0,0,1,2.55-3.59c1.4-.81,2-.34,2,1.75v3.51c0,.52.13.65.36.52a1.18,1.18,0,0,0,.42-.6l.28.16a2.77,2.77,0,0,1-1.24,1.74C181.64,131.64,181.2,131.29,181.14,130.33Z" style="fill:#455a64"></path><path d="M184.83,126.22v-.85c0-.88,0-1.29,0-1.92l-.85.35v-.6l2-2.18.19,0,.13,1.92v2.39c0,1,0,2.65,0,3.36l-1.53.88C184.81,128.89,184.83,127.22,184.83,126.22Zm-.8,3.18,1.24-1,.77-.44,1.24-.39v.66L184,130.06Zm1.56-5.77.8-.46-.23.41c.29-1.91,1.08-3.31,1.8-3.72.44-.25.83-.17,1,.32a1.92,1.92,0,0,1-.78,1.7.65.65,0,0,1-.84-.09l-.33-.3.53-.27a7.61,7.61,0,0,0-1.24,3.11l-.67.33Z" style="fill:#455a64"></path><path d="M191.38,121.47c.5-.51,1.31-1.28,1.9-1.78v.63a18.53,18.53,0,0,0-1.6,1.57,3.31,3.31,0,0,0-1.05,2.23c0,.83.37,1,.85.69s.54-.48,1.11-1.35l.37-.58.14.2-.43.85a5.15,5.15,0,0,1-1.85,2.44c-.91.52-1.6.22-1.6-1.11C189.22,124.23,189.64,123.22,191.38,121.47Zm1.15,2.29V119.9c0-1.5-.27-1.74-1.05-1.29a4.83,4.83,0,0,0-1.11.9l.66-1-.2,1.37a1.86,1.86,0,0,1-.76,1.55c-.38.22-.62.1-.68-.33a4.92,4.92,0,0,1,2.56-3.59c1.4-.81,2-.35,2,1.75v3.51c0,.52.13.64.36.51a1.1,1.1,0,0,0,.41-.59l.29.16a2.72,2.72,0,0,1-1.25,1.73C193,125.06,192.58,124.71,192.53,123.76Z" style="fill:#455a64"></path><path d="M198.15,121.07a2.39,2.39,0,0,0,.74-.83l.28.25a3.66,3.66,0,0,1-1.58,2c-1,.56-1.55.28-1.55-1.14,0-.47,0-.86,0-1.49v-3.44l-.89.51v-.82l1.46-1.1-.59.93.57-3,1-.56-.06,2.89v5.09C197.51,121.1,197.77,121.29,198.15,121.07Zm.82-7.34v1L196.78,116v-1Z" style="fill:#455a64"></path><path d="M200.32,120.66c0-.74,0-2.4,0-3.4v-.76c0-.89,0-1.38,0-2l-.87.35v-.59l2.18-2.28.2,0,0,2.28v2.13c0,1,0,2.65,0,3.36Zm2.22-1.94v.66l-3,1.73v-.66l1.23-1,.58-.34Zm-2.4-8.54a2,2,0,0,1,.92-1.68c.5-.29.91-.06.91.62a2.07,2.07,0,0,1-.91,1.68C200.55,111.09,200.14,110.85,200.14,110.18Z" style="fill:#455a64"></path><path d="M203.31,115.08a6.82,6.82,0,0,1,2.91-5.76c1.55-.9,2.92-.2,2.92,2.39a6.73,6.73,0,0,1-2.92,5.77C204.58,118.42,203.31,117.65,203.31,115.08Zm4.25-2.44c0-2.22-.48-3-1.34-2.54s-1.34,1.86-1.34,4.09.47,3,1.34,2.5S207.56,114.87,207.56,112.64Z" style="fill:#455a64"></path><path d="M210.76,114.63c0-.74,0-2.4,0-3.4v-.85c0-.88,0-1.29,0-1.92l-.85.34v-.59l2-2.19.19.06.13,1.75v2.56c0,1,0,2.65,0,3.36Zm2.22-1.94v.66l-3,1.72v-.66l1.22-1,.59-.34Zm2.92-6.09v1.68c0,1,0,2.65,0,3.36l-1.53.88c0-.74,0-2.37,0-3.4v-1.53c0-1.26-.24-1.54-.84-1.19a5.11,5.11,0,0,0-1.64,2.09l-.33.19v-.88l.72-.42-.49.66a6.7,6.7,0,0,1,2.4-3.37C215.31,104.07,215.9,104.61,215.9,106.6Zm-.44,4.34,1.19-.37v.66l-3,1.72v-.66l1.21-1Z" style="fill:#455a64"></path><path d="M220.12,105.37A6.82,6.82,0,0,1,223,99.61c1.55-.89,2.91-.19,2.91,2.4a6.69,6.69,0,0,1-2.91,5.76C221.39,108.72,220.12,108,220.12,105.37Zm4.25-2.43c0-2.23-.48-3-1.34-2.54s-1.34,1.86-1.34,4.08.46,3,1.34,2.51S224.37,105.16,224.37,102.94Z" style="fill:#455a64"></path><path d="M227.63,98.15l-.89.52v-.83l1.4-1-.51.65a9.39,9.39,0,0,1,1-4,4.9,4.9,0,0,1,1.85-2.1c.62-.36,1.16-.4,1.3.26a1.66,1.66,0,0,1-.8,1.35c-.35.21-.66.13-1-.24l-.44-.32,1.1-1,.2.36a.5.5,0,0,0-.44,0,2.73,2.73,0,0,0-.95,1.4,9.85,9.85,0,0,0-.34,3.87v3.6q0,1.69,0,3.36l-1.52.88c0-1.14,0-2.27,0-3.4Zm2.49,4.64v.66l-3.33,1.93v-.66l1.28-1.06.74-.43Zm.43-7.29v1l-2.19,1.26v-1Z" style="fill:#455a64"></path><path d="M142,174.35v-2.87c0-3.25-.92-4.16-2.73-3.11-1.22.7-2.36,2-3.45,4.43-.36-1.45-1.19-1.75-2.5-1a9.71,9.71,0,0,0-3.33,4.28l-.15-2-.32-.09-3.35,3.62v1l1.41-.57c0,1,.06,1.72.06,3.19v1.41c0,1.16,0,2.86,0,4.19l-1.29,1.09V189l5-2.85v-1.1l-1.19.36c0-1.32,0-3,0-4.17v-4a7,7,0,0,1,2.18-2.6c1.05-.6,1.42-.07,1.42,2.1v2.41c0,1.19,0,2.87,0,4.19l-1.27,1.08v1.09L134.9,184l1.17-.67h0l1.15-.67v-1.09L136,182c0-1.31,0-3,0-4.18V175c0-.42,0-.8,0-1.15a6.78,6.78,0,0,1,2.21-2.63c1-.58,1.42-.2,1.42,2.06v2.44c0,1.2,0,2.87,0,4.2L138.33,181v1.09l1.95-1.13,1.75-1h0l1.18-.68v-1.09l-1.21.37C142,177.21,142,175.55,142,174.35Zm10.89-2c-.37.22-.6,0-.6-.85v-5.83c0-3.48-1-4.25-3.33-2.91a8.18,8.18,0,0,0-4.24,6c.1.72.5.92,1.13.55a3.08,3.08,0,0,0,1.25-2.58l.24-1.6a5.34,5.34,0,0,1,.84-.58c1.3-.75,1.75-.34,1.75,2.15v.76c-.7.64-1.4,1.31-1.91,1.83-2.89,2.92-3.59,4.59-3.59,6.29,0,2.21,1.15,2.72,2.66,1.85,1.27-.73,1.92-1.83,2.91-3.74.23,1.12.92,1.47,2,.86a4.57,4.57,0,0,0,2.06-2.89l-.47-.26A2,2,0,0,1,152.86,172.36Zm-3,.35c-.87,1.33-1.23,1.8-1.75,2.1-.79.46-1.4.23-1.4-1.15a5.52,5.52,0,0,1,1.74-3.7c.34-.39.86-.92,1.41-1.45Zm-40.83,8.52h0l-1.61.93v1.25l1.63-.7c0,2.13,0,4.28,0,6.42l-5.42,3.13c0-2.18,0-4.33,0-6.47l1.63-1.17v-1.26l-2.73,1.58-1.6.92h0l-1.64.95v1.25l1.66-.71c0,2.24,0,4.5,0,6.76v1.16c0,2.29,0,4.55,0,6.8l-1.66,1.21v1.25l3.24-1.87,1.12-.65h0l1.61-.92v-1.26l-1.63.71c0-2.18,0-4.44,0-6.88l5.42-3.13c0,2.48,0,4.73,0,6.92l-1.64,1.18v1.25l2.47-1.42,1.86-1.07h0l1.64-.95v-1.26l-1.66.72c0-2.24,0-4.51,0-6.76V188q0-3.43,0-6.81l1.66-1.2v-1.26l-3.5,2Zm78.16-43.06a3.4,3.4,0,0,0,1.51-2.78c0-1.13-.67-1.52-1.51-1a3.38,3.38,0,0,0-1.52,2.79C185.71,138.25,186.38,138.66,187.23,138.17Zm-63.39,43.3.06-3.8-.26-.13-3.43,2.59v1l1.26-.36-.06,7.69a7.49,7.49,0,0,1-2.28,2.84c-.89.51-1.35.1-1.35-1.91V185l.1-3.81-.26-.13-3.5,2.58v1l1.29-.36-.06,6.63c0,3.54,1.05,4.2,2.71,3.24a9.28,9.28,0,0,0,3.41-4.44l.16,2.25,3.42-2.21v-1.09l-1.21.35Zm101.44-57.38-.79.13c-1.37.18-1.77-.08-1.77-1a3.08,3.08,0,0,1,1.69-2.64,2.43,2.43,0,0,1,1.25-.39l.36,2,1.31-.76.11-2.88a4.31,4.31,0,0,0-3,.64,7.58,7.58,0,0,0-3.82,6.25c0,1.92.92,2.6,2.43,2.39l1-.15c1.29-.18,1.77.11,1.77,1.1a3.46,3.46,0,0,1-2,3,3,3,0,0,1-1.56.48l-.36-2.24-1.35.77,0,3.09a4.73,4.73,0,0,0,3.23-.74,7.9,7.9,0,0,0,4.2-6.56C228,124.72,227.23,123.84,225.28,124.09ZM218,134.68c-.63.36-1.07,0-1.07-1.28v-7.89l2.43-1.4v-1.62l-2.4,1.39.08-3.74-1.62.93-.76,4.1L213,126.38v1.38l1.48-.86v5.71c0,1,0,1.69,0,2.48,0,2.35,1,2.82,2.57,1.89a6,6,0,0,0,2.63-3.27l-.47-.41A4.09,4.09,0,0,1,218,134.68Zm-29.54,12.84V144l.06-3.78-.32-.09-3.62,3.78v1l1.43-.59c0,1.05.06,1.87.06,3.34v1.26c0,1.16,0,2.86,0,4.19l-1.31,1.11v1.09l5-2.87v-1.09l-1.21.37C188.46,150.37,188.45,148.68,188.45,147.52Zm22.71-13.12v-2.79c0-3.3-1-4.19-2.74-3.18a9.62,9.62,0,0,0-3.43,4.35V128l.08-3.81-.3-.07-3.58,3.27v1l1.45-.57v11.47c0,1.16,0,2.86,0,4.2l-1.31,1.09v1.09l1.28-.73h0l2.53-1.46h0l1.14-.66v-1.09l-1.17.35c0-1.32,0-3,0-4.18v-3.8a7.31,7.31,0,0,1,2.32-2.87c1-.58,1.38-.1,1.38,2v2.53c0,1.19,0,2.87,0,4.19l-1.27,1.07v1.1l5-2.86v-1.1l-1.21.38C211.17,137.27,211.16,135.6,211.16,134.4ZM181.73,152c-.39-2.09-1.08-2.85-2.82-2.2a8.49,8.49,0,0,0,3.52-6.4c0-2.87-1.78-3.54-4.88-1.74l-1.7,1h0l-2.69,1.56h0l-1.66,1v1.26l1.68-.73c0,2.25,0,4.51,0,6.76v1.16c0,2.3,0,4.56,0,6.81l-1.68,1.21v1.26l6-3.49v-1.25l-1.71.74c0-2.15,0-4.36,0-6.65l.86-.5c1.43-.82,2-.58,2.34,1.23l.6,3.37c.22,1.54,1,1.63,2.47.78a8.91,8.91,0,0,0,1.82-1.38v-1.25l-1.53.65ZM177,150.23l-1.18.68c0-2.41,0-4.62,0-6.84l1.29-.74c1.86-1.07,2.74-.46,2.74,1.74A5.78,5.78,0,0,1,177,150.23Zm21-14.62c-.66-.35-1.62-.19-2.83.51a7.67,7.67,0,0,0-3.91,6.61c0,1.68.56,2.63,1.58,2.75a8.88,8.88,0,0,0-1.45,4.05c0,1,.39,1.46,1.24,1.37a6.33,6.33,0,0,0-1.82,3.94c0,1.78,1.12,2.55,4.22.76,3.56-2,5.4-5.39,5.4-7.91,0-2.24-1-3.06-3.65-1.55l-2.49,1.43c-.9.52-1.16.24-1.16-.43a4.3,4.3,0,0,1,.37-1.68,5.29,5.29,0,0,0,1.65-.66,7.65,7.65,0,0,0,3.9-6.57,3.88,3.88,0,0,0-.44-2l2-1.13v-1.87l-.3-.09Zm-4.85,15.32a6.33,6.33,0,0,0,1.31-.6l2.23-1.29c1.27-.74,1.75-.18,1.75.81,0,1.33-1.11,3-3.21,4.24-1.7,1-2.63.83-2.63-.84A5.62,5.62,0,0,1,193.08,150.93Zm2-7.27c-1.08.62-1.64-.3-1.64-2.22s.62-3.54,1.7-4.16,1.67.26,1.67,2.15S196.16,143,195.05,143.66Zm-30.57,17.69v-2.79c0-3.3-1-4.19-2.72-3.19a9.58,9.58,0,0,0-3.41,4.31l-.14-2-.33-.09-3.34,3.63v1l1.41-.57c0,1,.06,1.72.06,3.19v1.4c0,1.17,0,2.86,0,4.2l-1.29,1.09v1.09l4.94-2.86v-1.09l-1.18.36c0-1.32,0-3,0-4.18v-4a7,7,0,0,1,2.25-2.64c1-.58,1.4-.11,1.4,2v2.53c0,1.19,0,2.87,0,4.19L160.77,168v1.1l4.95-2.86v-1.1l-1.21.38C164.49,164.23,164.48,162.55,164.48,161.35Z" style="fill:#DDA9B2"></path><path d="M142,174.35v-2.87c0-3.25-.92-4.16-2.73-3.11-1.22.7-2.36,2-3.45,4.43-.36-1.45-1.19-1.75-2.5-1a9.71,9.71,0,0,0-3.33,4.28l-.15-2-.32-.09-3.35,3.62v1l1.41-.57c0,1,.06,1.72.06,3.19v1.41c0,1.16,0,2.86,0,4.19l-1.29,1.09V189l5-2.85v-1.1l-1.19.36c0-1.32,0-3,0-4.17v-4a7,7,0,0,1,2.18-2.6c1.05-.6,1.42-.07,1.42,2.1v2.41c0,1.19,0,2.87,0,4.19l-1.27,1.08v1.09L134.9,184l1.17-.67h0l1.15-.67v-1.09L136,182c0-1.31,0-3,0-4.18V175c0-.42,0-.8,0-1.15a6.78,6.78,0,0,1,2.21-2.63c1-.58,1.42-.2,1.42,2.06v2.44c0,1.2,0,2.87,0,4.2L138.33,181v1.09l1.95-1.13,1.75-1h0l1.18-.68v-1.09l-1.21.37C142,177.21,142,175.55,142,174.35Zm10.89-2c-.37.22-.6,0-.6-.85v-5.83c0-3.48-1-4.25-3.33-2.91a8.18,8.18,0,0,0-4.24,6c.1.72.5.92,1.13.55a3.08,3.08,0,0,0,1.25-2.58l.24-1.6a5.34,5.34,0,0,1,.84-.58c1.3-.75,1.75-.34,1.75,2.15v.76c-.7.64-1.4,1.31-1.91,1.83-2.89,2.92-3.59,4.59-3.59,6.29,0,2.21,1.15,2.72,2.66,1.85,1.27-.73,1.92-1.83,2.91-3.74.23,1.12.92,1.47,2,.86a4.57,4.57,0,0,0,2.06-2.89l-.47-.26A2,2,0,0,1,152.86,172.36Zm-3,.35c-.87,1.33-1.23,1.8-1.75,2.1-.79.46-1.4.23-1.4-1.15a5.52,5.52,0,0,1,1.74-3.7c.34-.39.86-.92,1.41-1.45Zm-40.83,8.52h0l-1.61.93v1.25l1.63-.7c0,2.13,0,4.28,0,6.42l-5.42,3.13c0-2.18,0-4.33,0-6.47l1.63-1.17v-1.26l-2.73,1.58-1.6.92h0l-1.64.95v1.25l1.66-.71c0,2.24,0,4.5,0,6.76v1.16c0,2.29,0,4.55,0,6.8l-1.66,1.21v1.25l3.24-1.87,1.12-.65h0l1.61-.92v-1.26l-1.63.71c0-2.18,0-4.44,0-6.88l5.42-3.13c0,2.48,0,4.73,0,6.92l-1.64,1.18v1.25l2.47-1.42,1.86-1.07h0l1.64-.95v-1.26l-1.66.72c0-2.24,0-4.51,0-6.76V188q0-3.43,0-6.81l1.66-1.2v-1.26l-3.5,2Zm78.16-43.06a3.4,3.4,0,0,0,1.51-2.78c0-1.13-.67-1.52-1.51-1a3.38,3.38,0,0,0-1.52,2.79C185.71,138.25,186.38,138.66,187.23,138.17Zm-63.39,43.3.06-3.8-.26-.13-3.43,2.59v1l1.26-.36-.06,7.69a7.49,7.49,0,0,1-2.28,2.84c-.89.51-1.35.1-1.35-1.91V185l.1-3.81-.26-.13-3.5,2.58v1l1.29-.36-.06,6.63c0,3.54,1.05,4.2,2.71,3.24a9.28,9.28,0,0,0,3.41-4.44l.16,2.25,3.42-2.21v-1.09l-1.21.35Zm101.44-57.38-.79.13c-1.37.18-1.77-.08-1.77-1a3.08,3.08,0,0,1,1.69-2.64,2.43,2.43,0,0,1,1.25-.39l.36,2,1.31-.76.11-2.88a4.31,4.31,0,0,0-3,.64,7.58,7.58,0,0,0-3.82,6.25c0,1.92.92,2.6,2.43,2.39l1-.15c1.29-.18,1.77.11,1.77,1.1a3.46,3.46,0,0,1-2,3,3,3,0,0,1-1.56.48l-.36-2.24-1.35.77,0,3.09a4.73,4.73,0,0,0,3.23-.74,7.9,7.9,0,0,0,4.2-6.56C228,124.72,227.23,123.84,225.28,124.09ZM218,134.68c-.63.36-1.07,0-1.07-1.28v-7.89l2.43-1.4v-1.62l-2.4,1.39.08-3.74-1.62.93-.76,4.1L213,126.38v1.38l1.48-.86v5.71c0,1,0,1.69,0,2.48,0,2.35,1,2.82,2.57,1.89a6,6,0,0,0,2.63-3.27l-.47-.41A4.09,4.09,0,0,1,218,134.68Zm-29.54,12.84V144l.06-3.78-.32-.09-3.62,3.78v1l1.43-.59c0,1.05.06,1.87.06,3.34v1.26c0,1.16,0,2.86,0,4.19l-1.31,1.11v1.09l5-2.87v-1.09l-1.21.37C188.46,150.37,188.45,148.68,188.45,147.52Zm22.71-13.12v-2.79c0-3.3-1-4.19-2.74-3.18a9.62,9.62,0,0,0-3.43,4.35V128l.08-3.81-.3-.07-3.58,3.27v1l1.45-.57v11.47c0,1.16,0,2.86,0,4.2l-1.31,1.09v1.09l1.28-.73h0l2.53-1.46h0l1.14-.66v-1.09l-1.17.35c0-1.32,0-3,0-4.18v-3.8a7.31,7.31,0,0,1,2.32-2.87c1-.58,1.38-.1,1.38,2v2.53c0,1.19,0,2.87,0,4.19l-1.27,1.07v1.1l5-2.86v-1.1l-1.21.38C211.17,137.27,211.16,135.6,211.16,134.4ZM181.73,152c-.39-2.09-1.08-2.85-2.82-2.2a8.49,8.49,0,0,0,3.52-6.4c0-2.87-1.78-3.54-4.88-1.74l-1.7,1h0l-2.69,1.56h0l-1.66,1v1.26l1.68-.73c0,2.25,0,4.51,0,6.76v1.16c0,2.3,0,4.56,0,6.81l-1.68,1.21v1.26l6-3.49v-1.25l-1.71.74c0-2.15,0-4.36,0-6.65l.86-.5c1.43-.82,2-.58,2.34,1.23l.6,3.37c.22,1.54,1,1.63,2.47.78a8.91,8.91,0,0,0,1.82-1.38v-1.25l-1.53.65ZM177,150.23l-1.18.68c0-2.41,0-4.62,0-6.84l1.29-.74c1.86-1.07,2.74-.46,2.74,1.74A5.78,5.78,0,0,1,177,150.23Zm21-14.62c-.66-.35-1.62-.19-2.83.51a7.67,7.67,0,0,0-3.91,6.61c0,1.68.56,2.63,1.58,2.75a8.88,8.88,0,0,0-1.45,4.05c0,1,.39,1.46,1.24,1.37a6.33,6.33,0,0,0-1.82,3.94c0,1.78,1.12,2.55,4.22.76,3.56-2,5.4-5.39,5.4-7.91,0-2.24-1-3.06-3.65-1.55l-2.49,1.43c-.9.52-1.16.24-1.16-.43a4.3,4.3,0,0,1,.37-1.68,5.29,5.29,0,0,0,1.65-.66,7.65,7.65,0,0,0,3.9-6.57,3.88,3.88,0,0,0-.44-2l2-1.13v-1.87l-.3-.09Zm-4.85,15.32a6.33,6.33,0,0,0,1.31-.6l2.23-1.29c1.27-.74,1.75-.18,1.75.81,0,1.33-1.11,3-3.21,4.24-1.7,1-2.63.83-2.63-.84A5.62,5.62,0,0,1,193.08,150.93Zm2-7.27c-1.08.62-1.64-.3-1.64-2.22s.62-3.54,1.7-4.16,1.67.26,1.67,2.15S196.16,143,195.05,143.66Zm-30.57,17.69v-2.79c0-3.3-1-4.19-2.72-3.19a9.58,9.58,0,0,0-3.41,4.31l-.14-2-.33-.09-3.34,3.63v1l1.41-.57c0,1,.06,1.72.06,3.19v1.4c0,1.17,0,2.86,0,4.2l-1.29,1.09v1.09l4.94-2.86v-1.09l-1.18.36c0-1.32,0-3,0-4.18v-4a7,7,0,0,1,2.25-2.64c1-.58,1.4-.11,1.4,2v2.53c0,1.19,0,2.87,0,4.19L160.77,168v1.1l4.95-2.86v-1.1l-1.21.38C164.49,164.23,164.48,162.55,164.48,161.35Z" style="opacity:0.2"></path><path d="M239.09,256.2l-148,85.34a1.5,1.5,0,0,0,.75,2.8,1.42,1.42,0,0,0,.74-.2l148-85.34a1.49,1.49,0,0,0,.55-2A1.51,1.51,0,0,0,239.09,256.2Zm0,10.11-148,85.34a1.5,1.5,0,0,0,.75,2.8,1.42,1.42,0,0,0,.74-.2l148-85.34a1.5,1.5,0,1,0-1.5-2.6Zm0-20.22-148,85.34a1.5,1.5,0,0,0,.75,2.8,1.42,1.42,0,0,0,.74-.2l148-85.34a1.49,1.49,0,0,0,.55-2A1.51,1.51,0,0,0,239.09,246.09ZM91.88,232.5a1.42,1.42,0,0,0,.74-.2l148-85.34a1.5,1.5,0,1,0-1.5-2.6l-148,85.34a1.5,1.5,0,0,0,.75,2.8Zm147.21,43.93-148,85.33a1.5,1.5,0,0,0,.75,2.8,1.42,1.42,0,0,0,.74-.2l148-85.33a1.5,1.5,0,1,0-1.5-2.6Zm0-50.14-148,85.34a1.5,1.5,0,0,0,.75,2.8,1.52,1.52,0,0,0,.74-.2l148-85.34a1.5,1.5,0,1,0-1.5-2.6Zm0,60.25-148,85.33a1.5,1.5,0,0,0,.75,2.8,1.42,1.42,0,0,0,.74-.2l148-85.33a1.5,1.5,0,1,0-1.5-2.6Zm0-122-148,85.34a1.5,1.5,0,0,0,.75,2.8,1.42,1.42,0,0,0,.74-.2l148-85.34a1.5,1.5,0,1,0-1.5-2.6Zm0,21.27-148,85.33a1.5,1.5,0,0,0-.55,2.05,1.47,1.47,0,0,0,1.3.75,1.42,1.42,0,0,0,.74-.2l148-85.33a1.5,1.5,0,1,0-1.5-2.6Zm0,30.33-148,85.34a1.5,1.5,0,0,0,.75,2.8,1.43,1.43,0,0,0,.74-.21l148-85.33a1.5,1.5,0,1,0-1.5-2.6Zm0-61.71-148,85.34a1.5,1.5,0,0,0,.75,2.8,1.42,1.42,0,0,0,.74-.2l148-85.34a1.5,1.5,0,1,0-1.5-2.6Zm0,41.49-148,85.33a1.5,1.5,0,0,0-.55,2,1.47,1.47,0,0,0,1.3.75,1.42,1.42,0,0,0,.74-.2l148-85.33a1.5,1.5,0,1,0-1.5-2.6Zm0,10.11-148,85.33a1.5,1.5,0,0,0-.55,2.05,1.47,1.47,0,0,0,1.3.75,1.42,1.42,0,0,0,.74-.2l148-85.33a1.5,1.5,0,1,0-1.5-2.6Z" style="fill:#e0e0e0"></path><path d="M226.91,313.89a6.08,6.08,0,0,0-1.49,3.82c-.06,1.09.14,2.18.09,3.27a31.32,31.32,0,0,1-.74,4,11.44,11.44,0,0,0,2.51,9.63,34.83,34.83,0,0,0,3.25,2.81c1.51,1.28,2.77,2.88,4.54,3.81a10,10,0,0,0,5.55,1.12c3.1-.28,5.87-2,8.79-3.09a32,32,0,0,0,3.77-1.47,9.51,9.51,0,0,0,4.76-5.66c.47-2-.24-4-.34-6-.08-1.44-.25-2.89-.44-4.32-.38-2.86-1-6.22-3.46-8-.9-.66-2-1-2.94-1.61-2.23-1.36-3.68-3.81-6-4.95a8.69,8.69,0,0,0-6.7,0c-2.29.84-4,2.66-6.13,3.6A13.89,13.89,0,0,0,226.91,313.89Z" style="fill:#DDA9B2"></path><path d="M228.85,321.48a13.85,13.85,0,0,0,5.3,13.48c6,4.48,15.36,3.06,18.84-3.85,2.75-5.46.5-12.82-3.71-16.95-3.27-3.2-10.53-3.92-14.36-1.31A14.16,14.16,0,0,0,228.85,321.48Z" style="fill:#DDA9B2"></path><path d="M228.45,325a13.85,13.85,0,0,0,8.49,11.74c6.95,2.84,15.63-.86,17.28-8.42,1.31-6-2.7-12.54-7.81-15.49-4-2.28-11.18-1.17-14.23,2.3A14.15,14.15,0,0,0,228.45,325Z" style="fill:#fff;opacity:0.1"></path><path d="M252.45,336.31c-1.26.49-2.62.66-3.91,1.09a17.88,17.88,0,0,0-3.46,1.69,11.54,11.54,0,0,1-2.71,1.05,8.55,8.55,0,0,1-6.29-.72c-2.64-1.43-4.35-3.85-6.68-5.68-3.08-2.41-5.2-5.8-4.37-10-.1.41-.19.82-.26,1.23a11.44,11.44,0,0,0,2.51,9.63,34.83,34.83,0,0,0,3.25,2.81c1.51,1.28,2.77,2.88,4.54,3.81a10,10,0,0,0,5.55,1.12c3.1-.28,5.87-2,8.79-3.09a33.82,33.82,0,0,0,3.77-1.47,9.51,9.51,0,0,0,4.76-5.66,6.7,6.7,0,0,0,.14-1.89C257.25,333.9,255.08,335.27,252.45,336.31Z" style="opacity:0.25"></path><path d="M255.86,327a11.76,11.76,0,0,1-1,3.43,7.33,7.33,0,0,1-3.66,3.45,11.46,11.46,0,0,0,3-5.58c1.3-6-2.71-12.53-7.82-15.48-4-2.28-11.18-1.17-14.23,2.31-.16.19-.33.38-.49.59a7.93,7.93,0,0,1,1.88-2.67,9,9,0,0,1,1.68-1.09,18.14,18.14,0,0,1,4.3-1.85,10.56,10.56,0,0,1,6.18.53A16,16,0,0,1,251,314.1,15.25,15.25,0,0,1,255.86,327Z" style="opacity:0.1"></path><path d="M249.48,324.17c-1-.55-2.07-1.16-3.1-1.75a2.78,2.78,0,0,1-.27-.21,6,6,0,0,1,1,.28,3.64,3.64,0,0,0,1.73.23,4.37,4.37,0,0,0,.68-.2v-.11a13.49,13.49,0,0,1-3.78-1.17.59.59,0,0,1,.25-.05c.45,0,.9,0,1.36,0a2.79,2.79,0,0,0,2.27-1,1.18,1.18,0,0,0,.3-.76,6.5,6.5,0,0,1-3.87.29c.54-.17,1-.28,1.5-.47a2.38,2.38,0,0,0,1.23-.83,15,15,0,0,1-3.25.49,3.22,3.22,0,0,1,.55-.23,4,4,0,0,0,1.67-.82,2.05,2.05,0,0,0,.62-1.62,6.74,6.74,0,0,1-3.07,1.18c.46-.43.88-.81,1.28-1.21a2.08,2.08,0,0,0,.67-1.5,5.21,5.21,0,0,1-2,1.77,5.47,5.47,0,0,1,.41-.54,3.31,3.31,0,0,0,.85-2.24l0-.41-.13-.2a1.39,1.39,0,0,0-.26.29,4.32,4.32,0,0,1-1.79,1.73c-.72.47-1.42.95-2.12,1.44a.83.83,0,0,0-.37.87.68.68,0,0,0,.72.57.53.53,0,0,1,.47.29,1.8,1.8,0,0,1-.47,2.28.85.85,0,0,1-1.07.11,4.32,4.32,0,0,1-1.57-2.13c0-.05.05-.2.11-.26.29-.25.59-.47.88-.71a2.26,2.26,0,0,0,.23-.29c-.53.07-.88.57-1.5.54a1.37,1.37,0,0,1,.23-.27c.41-.25.84-.48,1.25-.75a2.39,2.39,0,0,0,.48-.52s0-.16-.05-.24a1.43,1.43,0,0,0-.21.12,5.4,5.4,0,0,1-.52.45c-.25.17-.53.29-.8.44a1.77,1.77,0,0,0-.17.12l-.16.12,0-.06c.36-.33.73-.65,1.12-1a.46.46,0,0,0-.69-.34c-.16.06-.29.18-.45.25s-.35.22-.52.2c-.4,0-.62.2-.85.47l-.93,1-.15.18a1.44,1.44,0,0,1,.94,1.74c.36-.07.43,0,.4.35s0,.45.29.5c.1,0,.19.18.22.3s.12.54.17.82c0,.05,0,.12-.06.18-.75-.29-1-.64-1-1.14-.7-.28-.7-.28-.5-.68a1.48,1.48,0,0,1-1.24-1.47l-1.54.65a1.56,1.56,0,0,0-.5.33c-.3.32-.55.68-.82,1a.69.69,0,0,0,0,.89c.41-.25.73-.68,1.31-.72-.38.33-.73.59-1,.9s-.32.34-.58.33c0,0-.15.08-.15.11s0,.18.09.19a.56.56,0,0,0,.34,0,1.55,1.55,0,0,0,.37-.26l1.23-1.06c0-.05.15,0,.23-.05s0,.18-.07.23c-.24.25-.49.48-.74.72a2.15,2.15,0,0,0-.18.24c.11,0,.23,0,.32,0,.32-.18.64-.39,1-.6a.31.31,0,0,1,.44,0,4.56,4.56,0,0,1,1.21,2.19,1,1,0,0,1-.19.7,1.5,1.5,0,0,1-2.22.25c-.26-.23-.53-.45-.28-.91a.55.55,0,0,0-.16-.73.8.8,0,0,0-1-.07,15,15,0,0,0-1.29,1,8.05,8.05,0,0,1-2.61,1.68c-.24.08-.49.13-.8.2a1.63,1.63,0,0,0,1.49.63c.68-.11,1.34-.29,2-.44-.36.26-.71.55-1.09.78s-.78.38-1.17.57c1.14.26,2-.45,2.94-1a6,6,0,0,1-2.11,2.54,1.74,1.74,0,0,0,1.74,0,5.19,5.19,0,0,0,1.42-1.42c.1-.15.21-.29.31-.43a11.73,11.73,0,0,1-1.61,3l.11.09a10.26,10.26,0,0,0,1.1-1,11.34,11.34,0,0,0,.88-1.27c0,1.47-.83,2.53-1.59,3.69a2.07,2.07,0,0,0,1.77-.69,4.92,4.92,0,0,0,1-1.94c.08-.27.17-.54.25-.82l.08,0a18.3,18.3,0,0,1-.35,4.13c.12-.09.23-.13.27-.21a3,3,0,0,0,.48-.91c.13-.67.17-1.35.25-2,0-.14,0-.27,0-.41a1.82,1.82,0,0,1,.16.57c.14.88.33,1.75.39,2.64a11.2,11.2,0,0,1-.12,1.91,2.94,2.94,0,0,1-.24.65,2.2,2.2,0,0,0,1.64-1.86,7.49,7.49,0,0,0,0-2.87l-.33-2a1.39,1.39,0,0,0-.06-.19h.16a6.47,6.47,0,0,1,1.15,4,1.39,1.39,0,0,0,.42-1.14c-.11-.75-.24-1.5-.36-2.31a2.6,2.6,0,0,1,1,1.5,3.14,3.14,0,0,1-.26,1.88l.07,0,.53-.51c0,.42-.06.76-.09,1.1a.3.3,0,0,1-.25.31,3.35,3.35,0,0,0-.82.42.61.61,0,0,0,0,1c.5-.52.5-.52.66-.51-.23.52-.41,1,.09,1.46a.62.62,0,0,0,.81,0,6.1,6.1,0,0,1-.34-.54c0-.07,0-.2,0-.3a.71.71,0,0,1,.26.06c.18.1.33.24.52.33a.7.7,0,0,0,1-.65H243a.87.87,0,0,1-1.05-.67.23.23,0,0,1,0-.14.94.94,0,0,1,1.29-.27,1.55,1.55,0,0,0,0-.4.73.73,0,0,0-1-.44l-.4.13c.07-.44.12-.83.19-1.27l.73.4c.1-.62-.33-1.16-.16-1.79a10.81,10.81,0,0,1,1.67,6.31,2.75,2.75,0,0,0,.52-.48,3.76,3.76,0,0,0,.19-3.36,2.09,2.09,0,0,1,.86,2l1.31.07.45-1.36c-.87-.13-1.27-.73-1.59-1.53l.18.11a4.4,4.4,0,0,0,2.4,1,1.7,1.7,0,0,0,1.16-.44,9.84,9.84,0,0,1-5.13-3.8c.68.08,1,.7,1.6.79,0-.29-.08-.53-.11-.72l1.22.1a3,3,0,0,0-.4.62,1.14,1.14,0,0,0,0,.66c.07.17.29.26.45.4.06-.09.08-.11.08-.13a.28.28,0,0,0,0-.09.64.64,0,0,1,.28-.74c.51-.42.51-.42.83.14a.62.62,0,0,1,0,.83.29.29,0,0,0-.05.16.28.28,0,0,0,.17.07.85.85,0,0,0,.76-.87,5,5,0,0,0-.19-.66c0-.07-.06-.2,0-.22a.3.3,0,0,1,.24-.06,1.18,1.18,0,0,1,.31.24c.08.09.13.2.21.31a.83.83,0,0,0,.26-.83c-.25-.56-.78-.47-1.36-.49a1.88,1.88,0,0,1,.37-.35,1.37,1.37,0,0,1,.42-.06c-.16-.49-.48-.65-.89-.4a5,5,0,0,0-.64.58c-.07.07-.13.18-.2.19a2.22,2.22,0,0,1-1.16-.23c.22-.14.39-.25.55-.37v-.07a3.23,3.23,0,0,1-1.74-.38,3.34,3.34,0,0,1-.93-1.53,3,3,0,0,1,.74.44,3.94,3.94,0,0,0,1.6.82.61.61,0,0,0,.72-.19,6,6,0,0,1-3.29-2.65,2.61,2.61,0,0,1,.56.26c.88.52,1.74,1.1,2.67,1.55a3.63,3.63,0,0,0,2.75.2,1,1,0,0,0,.72-.86A2.26,2.26,0,0,1,249.48,324.17Z" style="fill:#DDA9B2;opacity:0.4"></path><path d="M249.48,324.17c-1-.55-2.07-1.16-3.1-1.75a2.78,2.78,0,0,1-.27-.21,6,6,0,0,1,1,.28,3.64,3.64,0,0,0,1.73.23,4.37,4.37,0,0,0,.68-.2v-.11a13.49,13.49,0,0,1-3.78-1.17.59.59,0,0,1,.25-.05c.45,0,.9,0,1.36,0a2.79,2.79,0,0,0,2.27-1,1.18,1.18,0,0,0,.3-.76,6.5,6.5,0,0,1-3.87.29c.54-.17,1-.28,1.5-.47a2.38,2.38,0,0,0,1.23-.83,15,15,0,0,1-3.25.49,3.22,3.22,0,0,1,.55-.23,4,4,0,0,0,1.67-.82,2.05,2.05,0,0,0,.62-1.62,6.74,6.74,0,0,1-3.07,1.18c.46-.43.88-.81,1.28-1.21a2.08,2.08,0,0,0,.67-1.5,5.21,5.21,0,0,1-2,1.77,5.47,5.47,0,0,1,.41-.54,3.31,3.31,0,0,0,.85-2.24l0-.41-.13-.2a1.39,1.39,0,0,0-.26.29,4.32,4.32,0,0,1-1.79,1.73c-.72.47-1.42.95-2.12,1.44a.83.83,0,0,0-.37.87.68.68,0,0,0,.72.57.53.53,0,0,1,.47.29,1.8,1.8,0,0,1-.47,2.28.85.85,0,0,1-1.07.11,4.32,4.32,0,0,1-1.57-2.13c0-.05.05-.2.11-.26.29-.25.59-.47.88-.71a2.26,2.26,0,0,0,.23-.29c-.53.07-.88.57-1.5.54a1.37,1.37,0,0,1,.23-.27c.41-.25.84-.48,1.25-.75a2.39,2.39,0,0,0,.48-.52s0-.16-.05-.24a1.43,1.43,0,0,0-.21.12,5.4,5.4,0,0,1-.52.45c-.25.17-.53.29-.8.44a1.77,1.77,0,0,0-.17.12l-.16.12,0-.06c.36-.33.73-.65,1.12-1a.46.46,0,0,0-.69-.34c-.16.06-.29.18-.45.25s-.35.22-.52.2c-.4,0-.62.2-.85.47l-.93,1-.15.18a1.44,1.44,0,0,1,.94,1.74c.36-.07.43,0,.4.35s0,.45.29.5c.1,0,.19.18.22.3s.12.54.17.82c0,.05,0,.12-.06.18-.75-.29-1-.64-1-1.14-.7-.28-.7-.28-.5-.68a1.48,1.48,0,0,1-1.24-1.47l-1.54.65a1.56,1.56,0,0,0-.5.33c-.3.32-.55.68-.82,1a.69.69,0,0,0,0,.89c.41-.25.73-.68,1.31-.72-.38.33-.73.59-1,.9s-.32.34-.58.33c0,0-.15.08-.15.11s0,.18.09.19a.56.56,0,0,0,.34,0,1.55,1.55,0,0,0,.37-.26l1.23-1.06c0-.05.15,0,.23-.05s0,.18-.07.23c-.24.25-.49.48-.74.72a2.15,2.15,0,0,0-.18.24c.11,0,.23,0,.32,0,.32-.18.64-.39,1-.6a.31.31,0,0,1,.44,0,4.56,4.56,0,0,1,1.21,2.19,1,1,0,0,1-.19.7,1.5,1.5,0,0,1-2.22.25c-.26-.23-.53-.45-.28-.91a.55.55,0,0,0-.16-.73.8.8,0,0,0-1-.07,15,15,0,0,0-1.29,1,8.05,8.05,0,0,1-2.61,1.68c-.24.08-.49.13-.8.2a1.63,1.63,0,0,0,1.49.63c.68-.11,1.34-.29,2-.44-.36.26-.71.55-1.09.78s-.78.38-1.17.57c1.14.26,2-.45,2.94-1a6,6,0,0,1-2.11,2.54,1.74,1.74,0,0,0,1.74,0,5.19,5.19,0,0,0,1.42-1.42c.1-.15.21-.29.31-.43a11.73,11.73,0,0,1-1.61,3l.11.09a10.26,10.26,0,0,0,1.1-1,11.34,11.34,0,0,0,.88-1.27c0,1.47-.83,2.53-1.59,3.69a2.07,2.07,0,0,0,1.77-.69,4.92,4.92,0,0,0,1-1.94c.08-.27.17-.54.25-.82l.08,0a18.3,18.3,0,0,1-.35,4.13c.12-.09.23-.13.27-.21a3,3,0,0,0,.48-.91c.13-.67.17-1.35.25-2,0-.14,0-.27,0-.41a1.82,1.82,0,0,1,.16.57c.14.88.33,1.75.39,2.64a11.2,11.2,0,0,1-.12,1.91,2.94,2.94,0,0,1-.24.65,2.2,2.2,0,0,0,1.64-1.86,7.49,7.49,0,0,0,0-2.87l-.33-2a1.39,1.39,0,0,0-.06-.19h.16a6.47,6.47,0,0,1,1.15,4,1.39,1.39,0,0,0,.42-1.14c-.11-.75-.24-1.5-.36-2.31a2.6,2.6,0,0,1,1,1.5,3.14,3.14,0,0,1-.26,1.88l.07,0,.53-.51c0,.42-.06.76-.09,1.1a.3.3,0,0,1-.25.31,3.35,3.35,0,0,0-.82.42.61.61,0,0,0,0,1c.5-.52.5-.52.66-.51-.23.52-.41,1,.09,1.46a.62.62,0,0,0,.81,0,6.1,6.1,0,0,1-.34-.54c0-.07,0-.2,0-.3a.71.71,0,0,1,.26.06c.18.1.33.24.52.33a.7.7,0,0,0,1-.65H243a.87.87,0,0,1-1.05-.67.23.23,0,0,1,0-.14.94.94,0,0,1,1.29-.27,1.55,1.55,0,0,0,0-.4.73.73,0,0,0-1-.44l-.4.13c.07-.44.12-.83.19-1.27l.73.4c.1-.62-.33-1.16-.16-1.79a10.81,10.81,0,0,1,1.67,6.31,2.75,2.75,0,0,0,.52-.48,3.76,3.76,0,0,0,.19-3.36,2.09,2.09,0,0,1,.86,2l1.31.07.45-1.36c-.87-.13-1.27-.73-1.59-1.53l.18.11a4.4,4.4,0,0,0,2.4,1,1.7,1.7,0,0,0,1.16-.44,9.84,9.84,0,0,1-5.13-3.8c.68.08,1,.7,1.6.79,0-.29-.08-.53-.11-.72l1.22.1a3,3,0,0,0-.4.62,1.14,1.14,0,0,0,0,.66c.07.17.29.26.45.4.06-.09.08-.11.08-.13a.28.28,0,0,0,0-.09.64.64,0,0,1,.28-.74c.51-.42.51-.42.83.14a.62.62,0,0,1,0,.83.29.29,0,0,0-.05.16.28.28,0,0,0,.17.07.85.85,0,0,0,.76-.87,5,5,0,0,0-.19-.66c0-.07-.06-.2,0-.22a.3.3,0,0,1,.24-.06,1.18,1.18,0,0,1,.31.24c.08.09.13.2.21.31a.83.83,0,0,0,.26-.83c-.25-.56-.78-.47-1.36-.49a1.88,1.88,0,0,1,.37-.35,1.37,1.37,0,0,1,.42-.06c-.16-.49-.48-.65-.89-.4a5,5,0,0,0-.64.58c-.07.07-.13.18-.2.19a2.22,2.22,0,0,1-1.16-.23c.22-.14.39-.25.55-.37v-.07a3.23,3.23,0,0,1-1.74-.38,3.34,3.34,0,0,1-.93-1.53,3,3,0,0,1,.74.44,3.94,3.94,0,0,0,1.6.82.61.61,0,0,0,.72-.19,6,6,0,0,1-3.29-2.65,2.61,2.61,0,0,1,.56.26c.88.52,1.74,1.1,2.67,1.55a3.63,3.63,0,0,0,2.75.2,1,1,0,0,0,.72-.86A2.26,2.26,0,0,1,249.48,324.17Z" style="opacity:0.2"></path><path d="M249.62,323.5c-1.05-.55-2.07-1.16-3.1-1.75a2.92,2.92,0,0,1-.28-.21,5.88,5.88,0,0,1,1.06.28,3.64,3.64,0,0,0,1.73.23,4.37,4.37,0,0,0,.68-.2l0-.11a13.53,13.53,0,0,1-3.77-1.17.59.59,0,0,1,.25-.05c.45,0,.9,0,1.35,0a2.81,2.81,0,0,0,2.28-1,1.18,1.18,0,0,0,.3-.76,6.5,6.5,0,0,1-3.87.29c.53-.17,1-.28,1.49-.47a2.41,2.41,0,0,0,1.24-.83,15.67,15.67,0,0,1-3.25.49,2.91,2.91,0,0,1,.55-.23,3.87,3.87,0,0,0,1.66-.82,2.06,2.06,0,0,0,.63-1.62,6.79,6.79,0,0,1-3.07,1.18c.46-.43.88-.81,1.28-1.21a2.12,2.12,0,0,0,.67-1.5,5.21,5.21,0,0,1-2,1.77c.12-.2.27-.36.4-.54a3.26,3.26,0,0,0,.85-2.24c0-.14,0-.27,0-.41l-.13-.2a1.39,1.39,0,0,0-.26.29,4.29,4.29,0,0,1-1.8,1.73c-.71.47-1.42.95-2.12,1.44a.84.84,0,0,0-.36.87.68.68,0,0,0,.71.57.52.52,0,0,1,.47.29,1.79,1.79,0,0,1-.46,2.28.85.85,0,0,1-1.07.11,4.4,4.4,0,0,1-1.58-2.13c0-.05.06-.2.12-.26.29-.25.59-.47.88-.71a1.58,1.58,0,0,0,.22-.29c-.52.07-.87.57-1.49.54a1.37,1.37,0,0,1,.23-.27c.41-.26.84-.48,1.24-.75a2.43,2.43,0,0,0,.49-.52s0-.16-.06-.24l-.21.12a4.32,4.32,0,0,1-.51.45c-.26.17-.53.29-.8.44a1.77,1.77,0,0,0-.17.12l-.16.12,0-.06,1.12-1a.45.45,0,0,0-.68-.34c-.16.06-.3.18-.45.25s-.36.22-.52.2c-.4,0-.62.2-.85.47s-.63.66-.94,1a1.41,1.41,0,0,0-.14.18,1.42,1.42,0,0,1,.93,1.74c.37-.07.44,0,.41.35s0,.44.29.5c.09,0,.18.18.22.3s.12.54.17.82a.76.76,0,0,1-.06.18c-.75-.29-1-.64-1-1.14-.7-.28-.7-.28-.5-.68a1.47,1.47,0,0,1-1.24-1.47l-1.54.65a1.72,1.72,0,0,0-.51.33c-.29.32-.54.68-.82,1a.71.71,0,0,0,0,.89c.41-.25.73-.69,1.31-.72-.39.33-.73.59-1.05.9-.17.17-.31.34-.57.33-.05,0-.15.08-.15.11s0,.18.09.19a.5.5,0,0,0,.34,0,1.42,1.42,0,0,0,.37-.25c.41-.35.81-.71,1.23-1.06.05-.05.15,0,.23-.05s0,.18-.07.23c-.24.25-.5.48-.74.72a2.15,2.15,0,0,0-.18.24c.1,0,.23,0,.32,0,.32-.18.64-.39.95-.6a.31.31,0,0,1,.44,0,4.47,4.47,0,0,1,1.2,2.19,1,1,0,0,1-.19.7A1.49,1.49,0,0,1,235,324c-.26-.23-.53-.45-.29-.91a.54.54,0,0,0-.16-.73.78.78,0,0,0-1-.07,15,15,0,0,0-1.29,1,8.05,8.05,0,0,1-2.61,1.68c-.24.08-.49.13-.8.2a1.63,1.63,0,0,0,1.49.63c.67-.11,1.34-.29,2-.44-.37.26-.72.55-1.1.78a12.63,12.63,0,0,1-1.17.57c1.15.26,2-.45,2.95-1a6,6,0,0,1-2.11,2.54,1.72,1.72,0,0,0,1.73,0,5.09,5.09,0,0,0,1.43-1.42c.1-.15.2-.29.31-.43a12,12,0,0,1-1.61,3.05l.11.09a10.26,10.26,0,0,0,1.1-1,12.34,12.34,0,0,0,.88-1.27c.05,1.47-.84,2.53-1.59,3.69a2.08,2.08,0,0,0,1.77-.69,4.9,4.9,0,0,0,1-1.94c.09-.27.17-.54.26-.82l.08,0a18.3,18.3,0,0,1-.35,4.13c.12-.09.22-.13.27-.21a3.46,3.46,0,0,0,.48-.91c.13-.67.17-1.35.24-2l.06-.41a2,2,0,0,1,.16.57c.13.88.32,1.75.39,2.64a10.28,10.28,0,0,1-.13,1.91,2.85,2.85,0,0,1-.23.65,2.8,2.8,0,0,0,.39-.14A2.42,2.42,0,0,0,239,332a7.3,7.3,0,0,0,0-2.87c-.11-.67-.21-1.34-.32-2l-.06-.19h.16a6.47,6.47,0,0,1,1.15,4,1.39,1.39,0,0,0,.42-1.14c-.11-.75-.24-1.5-.37-2.31A2.62,2.62,0,0,1,241,329a3.23,3.23,0,0,1-.26,1.88l.07,0,.53-.51c0,.42-.06.76-.09,1.1a.3.3,0,0,1-.25.31,3.18,3.18,0,0,0-.82.42.61.61,0,0,0,0,1c.51-.52.51-.52.67-.51-.23.52-.41,1,.09,1.46a.62.62,0,0,0,.81,0,4.42,4.42,0,0,1-.34-.54c0-.08,0-.2,0-.3a.76.76,0,0,1,.26.06c.17.1.33.23.51.32a.69.69,0,0,0,1-.64h-.08a.87.87,0,0,1-1-.67.23.23,0,0,1,0-.14.94.94,0,0,1,1.29-.27,2.17,2.17,0,0,0,0-.4.74.74,0,0,0-1-.44l-.39.13c.07-.44.12-.83.18-1.27l.73.4c.11-.62-.32-1.16-.15-1.79a10.74,10.74,0,0,1,1.66,6.31,2.56,2.56,0,0,0,.53-.48,3.76,3.76,0,0,0,.19-3.36,2.07,2.07,0,0,1,.85,2l1.32.07c.16-.48.3-.91.44-1.36-.86-.13-1.26-.73-1.58-1.54l.18.12a4.4,4.4,0,0,0,2.4,1,1.7,1.7,0,0,0,1.16-.44,9.84,9.84,0,0,1-5.13-3.8c.68.08,1,.7,1.6.79,0-.29-.08-.53-.11-.72l1.21.1a3.37,3.37,0,0,0-.39.62,1.07,1.07,0,0,0,0,.66c.07.17.29.26.45.4.06-.1.08-.11.08-.13a.14.14,0,0,0,0-.09.65.65,0,0,1,.28-.74c.52-.42.51-.42.84.14a.63.63,0,0,1,0,.83s-.07.14-.05.16a.26.26,0,0,0,.17.07.85.85,0,0,0,.76-.87,5,5,0,0,0-.19-.66c0-.07-.06-.2,0-.22s.18-.09.24-.06a1,1,0,0,1,.31.24,1.69,1.69,0,0,1,.21.31.84.84,0,0,0,.27-.83c-.25-.56-.79-.47-1.36-.49.16-.16.24-.29.36-.35a1.49,1.49,0,0,1,.43-.06c-.17-.49-.48-.65-.89-.4a5,5,0,0,0-.64.58c-.07.07-.13.18-.2.19a2.2,2.2,0,0,1-1.16-.23l.55-.37V326a3.21,3.21,0,0,1-1.74-.38,3.34,3.34,0,0,1-.93-1.53,3,3,0,0,1,.74.44,3.88,3.88,0,0,0,1.6.82.6.6,0,0,0,.71-.19,6,6,0,0,1-3.28-2.65,2.33,2.33,0,0,1,.55.26c.89.52,1.75,1.1,2.67,1.55a3.65,3.65,0,0,0,2.76.2,1,1,0,0,0,.72-.86A2.26,2.26,0,0,1,249.62,323.5Z" style="fill:#DDA9B2"></path><path d="M249.62,323.5c-1.05-.55-2.07-1.16-3.1-1.75a2.92,2.92,0,0,1-.28-.21,5.88,5.88,0,0,1,1.06.28,3.64,3.64,0,0,0,1.73.23,4.37,4.37,0,0,0,.68-.2l0-.11a13.53,13.53,0,0,1-3.77-1.17.59.59,0,0,1,.25-.05c.45,0,.9,0,1.35,0a2.81,2.81,0,0,0,2.28-1,1.18,1.18,0,0,0,.3-.76,6.5,6.5,0,0,1-3.87.29c.53-.17,1-.28,1.49-.47a2.41,2.41,0,0,0,1.24-.83,15.67,15.67,0,0,1-3.25.49,2.91,2.91,0,0,1,.55-.23,3.87,3.87,0,0,0,1.66-.82,2.06,2.06,0,0,0,.63-1.62,6.79,6.79,0,0,1-3.07,1.18c.46-.43.88-.81,1.28-1.21a2.12,2.12,0,0,0,.67-1.5,5.21,5.21,0,0,1-2,1.77c.12-.2.27-.36.4-.54a3.26,3.26,0,0,0,.85-2.24c0-.14,0-.27,0-.41l-.13-.2a1.39,1.39,0,0,0-.26.29,4.29,4.29,0,0,1-1.8,1.73c-.71.47-1.42.95-2.12,1.44a.84.84,0,0,0-.36.87.68.68,0,0,0,.71.57.52.52,0,0,1,.47.29,1.79,1.79,0,0,1-.46,2.28.85.85,0,0,1-1.07.11,4.4,4.4,0,0,1-1.58-2.13c0-.05.06-.2.12-.26.29-.25.59-.47.88-.71a1.58,1.58,0,0,0,.22-.29c-.52.07-.87.57-1.49.54a1.37,1.37,0,0,1,.23-.27c.41-.26.84-.48,1.24-.75a2.43,2.43,0,0,0,.49-.52s0-.16-.06-.24l-.21.12a4.32,4.32,0,0,1-.51.45c-.26.17-.53.29-.8.44a1.77,1.77,0,0,0-.17.12l-.16.12,0-.06,1.12-1a.45.45,0,0,0-.68-.34c-.16.06-.3.18-.45.25s-.36.22-.52.2c-.4,0-.62.2-.85.47s-.63.66-.94,1a1.41,1.41,0,0,0-.14.18,1.42,1.42,0,0,1,.93,1.74c.37-.07.44,0,.41.35s0,.44.29.5c.09,0,.18.18.22.3s.12.54.17.82a.76.76,0,0,1-.06.18c-.75-.29-1-.64-1-1.14-.7-.28-.7-.28-.5-.68a1.47,1.47,0,0,1-1.24-1.47l-1.54.65a1.72,1.72,0,0,0-.51.33c-.29.32-.54.68-.82,1a.71.71,0,0,0,0,.89c.41-.25.73-.69,1.31-.72-.39.33-.73.59-1.05.9-.17.17-.31.34-.57.33-.05,0-.15.08-.15.11s0,.18.09.19a.5.5,0,0,0,.34,0,1.42,1.42,0,0,0,.37-.25c.41-.35.81-.71,1.23-1.06.05-.05.15,0,.23-.05s0,.18-.07.23c-.24.25-.5.48-.74.72a2.15,2.15,0,0,0-.18.24c.1,0,.23,0,.32,0,.32-.18.64-.39.95-.6a.31.31,0,0,1,.44,0,4.47,4.47,0,0,1,1.2,2.19,1,1,0,0,1-.19.7A1.49,1.49,0,0,1,235,324c-.26-.23-.53-.45-.29-.91a.54.54,0,0,0-.16-.73.78.78,0,0,0-1-.07,15,15,0,0,0-1.29,1,8.05,8.05,0,0,1-2.61,1.68c-.24.08-.49.13-.8.2a1.63,1.63,0,0,0,1.49.63c.67-.11,1.34-.29,2-.44-.37.26-.72.55-1.1.78a12.63,12.63,0,0,1-1.17.57c1.15.26,2-.45,2.95-1a6,6,0,0,1-2.11,2.54,1.72,1.72,0,0,0,1.73,0,5.09,5.09,0,0,0,1.43-1.42c.1-.15.2-.29.31-.43a12,12,0,0,1-1.61,3.05l.11.09a10.26,10.26,0,0,0,1.1-1,12.34,12.34,0,0,0,.88-1.27c.05,1.47-.84,2.53-1.59,3.69a2.08,2.08,0,0,0,1.77-.69,4.9,4.9,0,0,0,1-1.94c.09-.27.17-.54.26-.82l.08,0a18.3,18.3,0,0,1-.35,4.13c.12-.09.22-.13.27-.21a3.46,3.46,0,0,0,.48-.91c.13-.67.17-1.35.24-2l.06-.41a2,2,0,0,1,.16.57c.13.88.32,1.75.39,2.64a10.28,10.28,0,0,1-.13,1.91,2.85,2.85,0,0,1-.23.65,2.8,2.8,0,0,0,.39-.14A2.42,2.42,0,0,0,239,332a7.3,7.3,0,0,0,0-2.87c-.11-.67-.21-1.34-.32-2l-.06-.19h.16a6.47,6.47,0,0,1,1.15,4,1.39,1.39,0,0,0,.42-1.14c-.11-.75-.24-1.5-.37-2.31A2.62,2.62,0,0,1,241,329a3.23,3.23,0,0,1-.26,1.88l.07,0,.53-.51c0,.42-.06.76-.09,1.1a.3.3,0,0,1-.25.31,3.18,3.18,0,0,0-.82.42.61.61,0,0,0,0,1c.51-.52.51-.52.67-.51-.23.52-.41,1,.09,1.46a.62.62,0,0,0,.81,0,4.42,4.42,0,0,1-.34-.54c0-.08,0-.2,0-.3a.76.76,0,0,1,.26.06c.17.1.33.23.51.32a.69.69,0,0,0,1-.64h-.08a.87.87,0,0,1-1-.67.23.23,0,0,1,0-.14.94.94,0,0,1,1.29-.27,2.17,2.17,0,0,0,0-.4.74.74,0,0,0-1-.44l-.39.13c.07-.44.12-.83.18-1.27l.73.4c.11-.62-.32-1.16-.15-1.79a10.74,10.74,0,0,1,1.66,6.31,2.56,2.56,0,0,0,.53-.48,3.76,3.76,0,0,0,.19-3.36,2.07,2.07,0,0,1,.85,2l1.32.07c.16-.48.3-.91.44-1.36-.86-.13-1.26-.73-1.58-1.54l.18.12a4.4,4.4,0,0,0,2.4,1,1.7,1.7,0,0,0,1.16-.44,9.84,9.84,0,0,1-5.13-3.8c.68.08,1,.7,1.6.79,0-.29-.08-.53-.11-.72l1.21.1a3.37,3.37,0,0,0-.39.62,1.07,1.07,0,0,0,0,.66c.07.17.29.26.45.4.06-.1.08-.11.08-.13a.14.14,0,0,0,0-.09.65.65,0,0,1,.28-.74c.52-.42.51-.42.84.14a.63.63,0,0,1,0,.83s-.07.14-.05.16a.26.26,0,0,0,.17.07.85.85,0,0,0,.76-.87,5,5,0,0,0-.19-.66c0-.07-.06-.2,0-.22s.18-.09.24-.06a1,1,0,0,1,.31.24,1.69,1.69,0,0,1,.21.31.84.84,0,0,0,.27-.83c-.25-.56-.79-.47-1.36-.49.16-.16.24-.29.36-.35a1.49,1.49,0,0,1,.43-.06c-.17-.49-.48-.65-.89-.4a5,5,0,0,0-.64.58c-.07.07-.13.18-.2.19a2.2,2.2,0,0,1-1.16-.23l.55-.37V326a3.21,3.21,0,0,1-1.74-.38,3.34,3.34,0,0,1-.93-1.53,3,3,0,0,1,.74.44,3.88,3.88,0,0,0,1.6.82.6.6,0,0,0,.71-.19,6,6,0,0,1-3.28-2.65,2.33,2.33,0,0,1,.55.26c.89.52,1.75,1.1,2.67,1.55a3.65,3.65,0,0,0,2.76.2,1,1,0,0,0,.72-.86A2.26,2.26,0,0,1,249.62,323.5Z" style="fill:#fff;opacity:0.4"></path><path d="M220.26,339.74a17.07,17.07,0,0,0-5,3.33.67.67,0,0,1-.16-.53c0-.56-1-.73-1-.14a9.24,9.24,0,0,1-1,3.16,6.73,6.73,0,0,1-2.06,2.49,1.9,1.9,0,0,1-1.33.39.71.71,0,0,1-.44-.42c1.79-2.15,3.69-4.84,3.44-7.72-.1-1-.61-3-2-2.79-.6.1-.87.63-1.1,1.13a16.66,16.66,0,0,0-.93,2.56,17.58,17.58,0,0,0-.63,5.05,6.82,6.82,0,0,0,.17,1.55,7.75,7.75,0,0,1-1.27,1.23,1.75,1.75,0,0,1-1.64.39,1.12,1.12,0,0,1-.69-.81c0-.2.07-.4.1-.61,0-.49-.8-.71-1-.27a1.41,1.41,0,0,0-.13.74,5,5,0,0,1-.28.93,7.24,7.24,0,0,1-.44-2.89c0-.55-1-.73-1-.13a19.49,19.49,0,0,1-2.5,7.48,4.25,4.25,0,0,1-.43.67c-.26.29-.39.23-.55-.08a4,4,0,0,1-.27-1.71,17.93,17.93,0,0,1,.05-2.43c.11-.66.21-1.33.27-2v0h0s0-.09,0-.13c.05-.51-1-.71-1.09-.17s-.21,1.37-.28,2.08a29.44,29.44,0,0,1-3.21,9.27,4.62,4.62,0,0,1-.56-2,17.63,17.63,0,0,0,1-5h0a.62.62,0,0,0,0-.13c0-.57-.94-.64-1.11-.15a14.53,14.53,0,0,0-1,5,17.05,17.05,0,0,1-6.59,8.38,8.72,8.72,0,0,1-4.1,1.65,3.08,3.08,0,0,1-3.21-1.83,6.53,6.53,0,0,1-.19-2.29c0-.88.07-1.76.15-2.63,0-.11,0-.22,0-.33a31.41,31.41,0,0,0,11.33-8c2.05-2.28,4.45-5.2,4.61-8.4.14-2.73-2-5.48-5-5a9.11,9.11,0,0,0-4.16,2.35,17.3,17.3,0,0,0-2.88,3.39,32.68,32.68,0,0,0-4,9.38,38.33,38.33,0,0,0-1,5.19l-.06.5a34.06,34.06,0,0,1-3.38,1.22c-.45.14,0,.78.33.69a27.62,27.62,0,0,0,2.94-.89,21.6,21.6,0,0,0-.11,3.85,3.82,3.82,0,0,0,2.34,3.34,5.78,5.78,0,0,0,4.29,0,16.4,16.4,0,0,0,7.59-6.18,18.9,18.9,0,0,0,1.4-2.43,4.71,4.71,0,0,0,.92,1.43c.23.25.75.4,1,0a30.41,30.41,0,0,0,2.77-6.33c.3.9,1.05,1.81,2.08,1.29a3.84,3.84,0,0,0,1.27-1.69,19.21,19.21,0,0,0,1.07-2.3,17.36,17.36,0,0,0,.67-2.08,8.56,8.56,0,0,0,.58,1.28c.14.25.7.45.89.13a8.76,8.76,0,0,0,.53-1.12,2.58,2.58,0,0,0,1.13.57c1.32.27,2.42-.65,3.24-1.57a1.66,1.66,0,0,0,1.07.58c1.5.22,2.77-1,3.59-2.11a10,10,0,0,0,1.6-3.37,2.14,2.14,0,0,0,.4.2.55.55,0,0,0,.59-.12,17.58,17.58,0,0,1,5-3.46C221.41,340.22,220.71,339.54,220.26,339.74Zm-41.37,15.92a35,35,0,0,1,3.16-8.81,16,16,0,0,1,5.42-6.3c1.23-.76,2.77-1.4,4.06-.42a4.13,4.13,0,0,1,1.48,3.32,8.61,8.61,0,0,1-1.6,4.34,28.85,28.85,0,0,1-2.49,3.33,31.31,31.31,0,0,1-10.6,7.88C178.47,357.88,178.64,356.76,178.89,355.66Zm30.32-12.22a16.43,16.43,0,0,1,1-3.59c.12-.32.4-1.36.77-1.35s.64,1.19.69,1.56c.3,2.31-1.1,4.57-2.42,6.34l-.16.2A17.57,17.57,0,0,1,209.21,343.44Z" style="fill:#455a64"></path><path d="M170.42,366.48c-1.93,2.88-5.21,4.4-8.19,5.95l-5.47,2.82-1.45.75c-.38.2-.67.28-.84.68-.37.81-.7,1.63-1.05,2.46a9.47,9.47,0,0,1-2.17-2.25c-.18-.26-.79-.28-.81.11-.07.95-.87,7.77-2.71,6.61a3.66,3.66,0,0,1-1-1.41,12.11,12.11,0,0,1-.79-1.85,11.34,11.34,0,0,1-.53-2.88c0-.36,0-.73,0-1.1s-.9-.72-.92-.18,0,.83,0,1.25a58.27,58.27,0,0,1-.55,9.14c-.24,1.68-.56,3.36-.94,5a27.55,27.55,0,0,1-1.37,4.73c-.24.54-.61,1.19-1.25,1.31s-1.34-.59-1.7-1.14a21.26,21.26,0,0,1-1.87-4.05,41.15,41.15,0,0,1-1.71-5.67,4.26,4.26,0,0,0,4.47-.16,7.27,7.27,0,0,0,2.34-3.64,29.74,29.74,0,0,0,1.18-5.27,36.05,36.05,0,0,0-.19-11.45,8,8,0,0,0-1.78-4.25,3.92,3.92,0,0,0-3.66-1.15c-1.61.4-2,2.08-2.49,3.48a41.62,41.62,0,0,0-1.23,5.07,42.67,42.67,0,0,0-.57,10.59,43.7,43.7,0,0,0,.77,5.69,4.57,4.57,0,0,1-.12,1.73,1.58,1.58,0,0,1-2,1.15,2.3,2.3,0,0,1-1.46-1.32,26.09,26.09,0,0,0,0-4.33c0-.41-.86-.74-1-.23a8.33,8.33,0,0,0-.11,4.4.61.61,0,0,1,0,.12,25.13,25.13,0,0,1-1.92,7.55,5.72,5.72,0,0,1-1.4,2.18c-.64.58-1.57.95-2-.08a11,11,0,0,1-.5-3c-.05-.51-.07-1-.09-1.54s0-1.27,0-1.9-1-.68-1-.1,0,1.26,0,1.9a27.26,27.26,0,0,1-5.65,15.74,45.22,45.22,0,0,1-2-8.2,30.12,30.12,0,0,0,4.67-14,26.92,26.92,0,0,0-.6-7.95.55.55,0,0,0-.48-.36c-1.81-.11-2.83,1.54-3.34,3.06a35.32,35.32,0,0,0-1.37,6.66,45.94,45.94,0,0,0,.09,12.34,28.21,28.21,0,0,1-9.18,8.81c-.35.22.13.76.45.59a26.1,26.1,0,0,0,9-8l.06.35a45,45,0,0,0,2.11,7.72.56.56,0,0,0,.92.19A27.94,27.94,0,0,0,123,396.6a2.05,2.05,0,0,0,2.78,1.6c1.48-.59,2.21-2.13,2.78-3.51a25.26,25.26,0,0,0,1.52-5.32c.05-.3.09-.59.13-.89a3.49,3.49,0,0,0,1.6.9,2.37,2.37,0,0,0,2.72-1.14h0c.19.69.38,1.39.6,2.08a44.08,44.08,0,0,0,1.9,4.86c.58,1.24,1.31,2.83,2.77,3.21s2.42-.83,2.86-2.07a43.14,43.14,0,0,0,1.46-5.41,57.7,57.7,0,0,0,1.24-9.62c.46,1.19,1.18,2.76,2.42,3.17s2.18-.88,2.56-2a20,20,0,0,0,.95-4.26,9.57,9.57,0,0,0,2.15,1.86c.2.13.58.2.7-.09l.61-1.45a7,7,0,0,1,.62-1.45,3.7,3.7,0,0,1,1.29-.76l1.33-.69,5.56-2.88c2.89-1.5,5.87-3.07,7.73-5.85C171.5,366.5,170.69,366.08,170.42,366.48Zm-55,16.43a14.49,14.49,0,0,1,.91-3,2.75,2.75,0,0,1,1.62-1.63,28.3,28.3,0,0,1-3.39,19.83A45.42,45.42,0,0,1,115.44,382.91Zm20.34-18.11c.4-1.28.77-3.1,2.39-3.24a3.23,3.23,0,0,1,3.07,2.18,15.39,15.39,0,0,1,1,4.49,35.45,35.45,0,0,1,.23,5.15,35.87,35.87,0,0,1-.6,5.66,18.93,18.93,0,0,1-1.43,4.92,4.07,4.07,0,0,1-3.18,2.59,2.25,2.25,0,0,1-2.55-1.82.35.35,0,0,0-.1-.2c-.07-.36-.14-.72-.19-1.08A42.33,42.33,0,0,1,135.78,364.8Z" style="fill:#455a64"></path></g></g><g id="freepik--Stamp--inject-13"><g id="freepik--Sealing--inject-13"><path d="M61.65,420.57c-8.09-4.67-21.21-4.67-29.3,0-4,2.33-6.05,5.39-6,8.45v3.49c0,3.07,2,6.13,6,8.47,8.09,4.67,21.21,4.67,29.3,0,4.05-2.34,6.06-5.4,6-8.47V429C67.7,426,65.7,422.9,61.65,420.57Z" style="fill:#37474f"></path><path d="M61.65,420.57c-8.09-4.67-21.21-4.67-29.3,0-4,2.33-6.05,5.39-6,8.45v3.49c0,3.07,2,6.13,6,8.47,8.09,4.67,21.21,4.67,29.3,0,4.05-2.34,6.06-5.4,6-8.47V429C67.7,426,65.7,422.9,61.65,420.57Z" style="opacity:0.2"></path><path d="M37.43,418.41a23.9,23.9,0,0,0-5.08,2.16c-4,2.33-6.05,5.39-6,8.45v3.49c0,3.07,2,6.13,6,8.47a23.9,23.9,0,0,0,5.08,2.16Z" style="opacity:0.2"></path><path d="M32.35,420.57c8.09-4.67,21.21-4.67,29.3,0s8.09,12.24,0,16.91-21.21,4.67-29.3,0S24.26,425.24,32.35,420.57Z" style="fill:#37474f"></path><path d="M32.35,420.57c8.09-4.67,21.21-4.67,29.3,0s8.09,12.24,0,16.91-21.21,4.67-29.3,0S24.26,425.24,32.35,420.57Z" style="opacity:0.4"></path><path d="M47,412.49c-19.81,0-22.37,8.52-22.37,12.91s2.67,8.05,8.19,11.24h0A28.87,28.87,0,0,0,47,440a28.87,28.87,0,0,0,14.16-3.37c5.52-3.19,8.19-6.84,8.19-11.24S66.79,412.49,47,412.49Z" style="fill:#37474f"></path><path d="M54.38,430.34l-.37.05c-1.47.2-4.18,0-5.38,1.18-2,1.94.77,3.62,2.51,4.16a12.53,12.53,0,0,0,8.74-.8,13.42,13.42,0,0,0,5.73-4.87c.53-.92,1.55-3.61.2-4.23a1.85,1.85,0,0,0-2.14.53,16.2,16.2,0,0,1-2.1,1.48,16,16,0,0,1-2,1.17A19.25,19.25,0,0,1,54.38,430.34Z" style="fill:#455a64"></path><path d="M44.58,427.78c11.68,1.05,19.88-3.61,22.76-8.61-2.57-3.49-8.23-6.68-20.35-6.68-19.81,0-22.37,8.52-22.37,12.91s2.67,8.05,8.19,11.24h0A28.87,28.87,0,0,0,47,440a28.87,28.87,0,0,0,14.16-3.37,25.68,25.68,0,0,0,3.37-2.3c-4.16,2.9-11.05,5.05-20,3.76S32.39,426.68,44.58,427.78Z" style="opacity:0.1"></path><path d="M37.45,424.14l-1.08-10.57C26.19,416,24.62,422,24.62,425.4c0,4.4,2.67,8.05,8.19,11.24h0c.17.1.36.18.54.28C27.26,433,31,422.27,37.45,424.14Z" style="opacity:0.1"></path><path d="M58.47,406.48c-6.33-3.65-16.61-3.65-22.94,0-3.17,1.83-4.74,4.23-4.74,6.63v3.59c0,2.4,1.56,4.8,4.74,6.63,6.33,3.66,16.6,3.66,22.94,0,3.17-1.83,4.74-4.23,4.73-6.63v-3.59C63.21,410.71,61.64,408.31,58.47,406.48Z" style="fill:#37474f"></path><path d="M58.47,406.48c-6.33-3.65-16.61-3.65-22.94,0-3.17,1.83-4.74,4.23-4.74,6.63v3.59c0,2.4,1.56,4.8,4.74,6.63,6.33,3.66,16.6,3.66,22.94,0,3.17-1.83,4.74-4.23,4.73-6.63v-3.59C63.21,410.71,61.64,408.31,58.47,406.48Z" style="opacity:0.2"></path><path d="M35.53,423.33A18.25,18.25,0,0,0,39,424.86V405a18.89,18.89,0,0,0-3.51,1.53c-3.17,1.83-4.74,4.23-4.74,6.63v3.59C30.78,419.1,32.35,421.5,35.53,423.33Z" style="opacity:0.2"></path><path d="M35.53,406.48c6.33-3.65,16.61-3.65,22.94,0s6.33,9.59,0,13.25-16.61,3.66-22.94,0S29.19,410.14,35.53,406.48Z" style="fill:#455a64"></path><path d="M57,392c1.73-17.74,6.71-37.23,5.24-50.26,0-.2,0-.4-.06-.6s0-.28,0-.41h0a15.29,15.29,0,0,0-30.24,0h0c0,.13,0,.28,0,.41s-.05.4-.07.6c-1.46,13,3.52,32.52,5.24,50.26.86,8.8-2,16.63-2,20.29,0,1.77,1.17,3.54,3.5,4.89,4.67,2.69,12.24,2.69,16.91,0,2.34-1.35,3.5-3.12,3.5-4.89C59,408.66,56.15,400.84,57,392Z" style="fill:#37474f"></path><path d="M35,412.32c0,1.77,1.17,3.54,3.5,4.89,3.67,2.11,9.12,2.56,13.56,1.35-7.54,1.1-10.61-4.47-8.05-12.77,5-16.07.93-25.87-3.29-44.11-2.44-10.56-4-19.58-1.6-25.86,1.73-4.57,6.16-8.06,10.65-7.81a15.29,15.29,0,0,0-17.93,12.75h0c0,.13,0,.28,0,.41s-.05.4-.07.6c-1.46,13,3.52,32.52,5.24,50.26C37.85,400.83,35,408.66,35,412.32Z" style="opacity:0.1"></path><path d="M31.88,340.76h0c0,.13,0,.28,0,.41s-.05.4-.07.6c-1.46,13,3.52,32.52,5.24,50.26.86,8.8-2,16.63-2,20.29,0,1.77,1.17,3.54,3.5,4.89l.73.37c-2.82-3.62-1.17-7.7,1.87-17.92s-2.07-29.16-5.67-42-1.6-22.39,3.07-27.32A15.3,15.3,0,0,0,31.88,340.76Z" style="opacity:0.1"></path><path d="M48.48,331.1a5,5,0,0,0-2.37,1.36,5.5,5.5,0,0,0-.77,5.58c.69,1.85,2.38,3.08,3.86,4.32l2.73,2.27a11.92,11.92,0,0,0,2.37,1.67c1.56.76,3.55.63,4.45-1.05a5.35,5.35,0,0,0,.51-2.47,12.94,12.94,0,0,0-3.06-8.43C54.45,332.29,51.27,330.35,48.48,331.1Z" style="fill:#455a64"></path><path d="M56.65,348.32a2.23,2.23,0,0,0-.95,1.61,2.68,2.68,0,0,0,.38,2.35,1.86,1.86,0,0,0,2,.4,2.51,2.51,0,0,0,1.39-1.61,2.6,2.6,0,0,0-.22-2.13A1.94,1.94,0,0,0,56.65,348.32Z" style="fill:#455a64"></path></g></g><g id="freepik--Pen--inject-13"><g id="freepik--pen--inject-13"><path d="M271.13,377c7.83-4,11.09-5.73,13-7.6s2.88-2.76,6.68-3.51,10.82-1.74,11.56-2.31c-.12-.41.62-.58,1.08.15s0,1.29-.45,1c0,0-.82,0-3.19,3.74s-2.12,4.14-3.29,6.94c-.93,2.21-1.92,2.42-4.27,3.35a52.3,52.3,0,0,0-8.7,4.5c-4.28,2.54-6.28,3.82-6.28,3.82Z" style="fill:#e0e0e0"></path><path d="M298.5,366l1.57-.7c1.13-.5,2.25-1,3.33-1.6a.92.92,0,0,0-.71-.44,2.1,2.1,0,0,1-.33.26.28.28,0,0,0,0,.09,2.55,2.55,0,0,1-.75.29l-.33.12c-3.38,1.29-6.77,2.58-10,4.15a4.38,4.38,0,0,1-1.16.43c-.43.08-.88,0-1.31.09a1.07,1.07,0,0,0-.93.8c-.19,1.57,2.57.09,3-.09,1.73-.75,3.42-1.58,5.15-2.35C296.81,366.63,297.68,366.32,298.5,366Z" style="opacity:0.15"></path><path d="M299.39,364.34Z" style="fill:#fafafa"></path><path d="M290.81,365.87c-3.8.75-4.76,1.65-6.68,3.51s-5.17,3.64-13,7.6l.41.66s8-4.22,9.08-4.82a17.08,17.08,0,0,0,4.79-3.48,8,8,0,0,1,3.88-2.75c1.64-.64,8.29-1.91,9.79-2.19C296.53,364.88,293.09,365.41,290.81,365.87Z" style="fill:#ebebeb"></path><polygon points="276.71 378.71 287.37 372.57 280.58 377.89 276.71 378.71" style="opacity:0.15"></polygon><path d="M301.43,366.1a54.66,54.66,0,0,1-4.46,4.61c-1.84,1.59-4.05,1.74-6,1.8s-5.16,2.58-10.2,5.31l.78,6.58,2-1.2a52.3,52.3,0,0,1,8.7-4.5c2.35-.93,3.34-1.14,4.27-3.35,1.17-2.8.92-3.22,3.29-6.94a25.72,25.72,0,0,1,1.62-2.31Z" style="opacity:0.15"></path><path d="M296.67,375c-.05.12-.1.24-.15.38a6,6,0,0,1-.78,1.38c-1.66.82-3.8,1-5.67,1.67a90.6,90.6,0,0,0-8.2,4.48l-.3-2.76c4.29-2.21,7-4.17,9.14-4.55.8-.13,1.78-.24,2.76-.44-1.41.63-3.15.8-4.18,1.93a7.29,7.29,0,0,1,1.65-.53c2-.42,3.45-.39,5-1.15A4.33,4.33,0,0,0,296.67,375Z" style="fill:#e0e0e0;opacity:0.30000000000000004"></path><path d="M303.45,363.71a1.26,1.26,0,0,0-.2-.2c-1.6.67-9.56,4-13.32,5.93-.07,0-.26-.11-.33-.13a1.37,1.37,0,0,0-.63-.1,1,1,0,0,0-.24.07,1.76,1.76,0,0,0-.38.21.53.53,0,0,0-.18.53.74.74,0,0,0,.22.33,3,3,0,0,0,1.09.66,2.7,2.7,0,0,0,.57.18,1.29,1.29,0,0,0,.66-.16c.2-.09.46-.28.46-.51a.72.72,0,0,0-.36-.55c-.07-.05-.33-.33-.43-.28,3.58-1.82,11.07-5,13.11-5.85C303.47,363.8,303.48,363.76,303.45,363.71Z" style="fill:#455a64"></path><path d="M273.68,373.08l.68,1.2a5.55,5.55,0,0,0-.22,1.61,11.34,11.34,0,0,0,5.12,8.88,5.76,5.76,0,0,0,1.51.61l.69,1.19,1.87-1.77h0a4,4,0,0,0,1.06-3,11.33,11.33,0,0,0-5.13-8.88,3.91,3.91,0,0,0-3.11-.57h0Z" style="fill:#DDA9B2"></path><path d="M273.68,373.08l.68,1.2a5.55,5.55,0,0,0-.22,1.61,11.34,11.34,0,0,0,5.12,8.88,5.76,5.76,0,0,0,1.51.61l.69,1.19,1.87-1.77h0a4,4,0,0,0,1.06-3,11.33,11.33,0,0,0-5.13-8.88,3.91,3.91,0,0,0-3.11-.57h0Z" style="opacity:0.15"></path><path d="M222.15,405.39a12.31,12.31,0,0,0,5.57,9.64,3.92,3.92,0,0,0,3.94.39L280.92,387c1-.58,1.63-1.83,1.63-3.61a12.33,12.33,0,0,0-5.56-9.64,3.94,3.94,0,0,0-3.94-.39l-49.27,28.45A3.92,3.92,0,0,0,222.15,405.39Z" style="fill:#DDA9B2"></path><path d="M222.15,405.39a12.31,12.31,0,0,0,5.57,9.64,3.92,3.92,0,0,0,3.94.39L280.92,387c1-.58,1.63-1.83,1.63-3.61a12.33,12.33,0,0,0-5.56-9.64,3.94,3.94,0,0,0-3.94-.39l-49.27,28.45A3.92,3.92,0,0,0,222.15,405.39Z" style="fill:#fff;opacity:0.5"></path><path d="M233.29,411.82a12.31,12.31,0,0,0-5.57-9.64,3.39,3.39,0,0,0-5.57,3.21,12.31,12.31,0,0,0,5.57,9.64,3.39,3.39,0,0,0,5.57-3.21Z" style="fill:#DDA9B2"></path><path d="M218.13,406.72a14.2,14.2,0,0,0,6.43,11.13c1.77,1,3.38,1.12,4.54.45l4.2-2.42c1.16-.68,1.88-2.12,1.88-4.16a14.19,14.19,0,0,0-6.42-11.13c-1.78-1-3.38-1.12-4.54-.45l-4.2,2.42C218.85,403.23,218.13,404.67,218.13,406.72Z" style="fill:#DDA9B2"></path><path d="M218.13,406.72a14.2,14.2,0,0,0,6.43,11.13c1.77,1,3.38,1.12,4.54.45l4.2-2.42c1.16-.68,1.88-2.12,1.88-4.16a14.19,14.19,0,0,0-6.42-11.13c-1.78-1-3.38-1.12-4.54-.45l-4.2,2.42C218.85,403.23,218.13,404.67,218.13,406.72Z" style="fill:#fff;opacity:0.35000000000000003"></path><path d="M231,414.14A14.19,14.19,0,0,0,224.56,403c-1.78-1-3.38-1.12-4.54-.45s-1.89,2.11-1.89,4.16a14.2,14.2,0,0,0,6.43,11.13c1.77,1,3.38,1.12,4.54.45S231,416.19,231,414.14Z" style="fill:#DDA9B2"></path><path d="M163,438.76a13.79,13.79,0,0,0,6.25,10.82c1.72,1,3.28,1.09,4.42.44l54.62-31.54c1.13-.65,1.83-2.05,1.83-4a13.83,13.83,0,0,0-6.25-10.83c-1.73-1-3.29-1.09-4.42-.43l-54.62,31.53C163.7,435.37,163,436.77,163,438.76Z" style="fill:#DDA9B2"></path><path d="M163,438.76a13.79,13.79,0,0,0,6.25,10.82c1.72,1,3.28,1.09,4.42.44l54.62-31.54c1.13-.65,1.83-2.05,1.83-4a13.83,13.83,0,0,0-6.25-10.83c-1.73-1-3.29-1.09-4.42-.43l-54.62,31.53C163.7,435.37,163,436.77,163,438.76Z" style="fill:#fff;opacity:0.35000000000000003"></path><path d="M164.83,434.71A8.84,8.84,0,1,0,173.67,450h0c1.13-.65,1.83-2,1.83-4a13.82,13.82,0,0,0-6.25-10.83c-1.73-1-3.29-1.09-4.42-.44Z" style="fill:#DDA9B2"></path><path d="M171.72,426.23v1.93l5.44,3.14,35.66-20.58a2.08,2.08,0,0,0,1.25-1.73c0-.32,0-1.59,0-1.92a1.85,1.85,0,0,0-1.08-1.53,6.19,6.19,0,0,0-5.62.11Z" style="fill:#263238"></path><path d="M212.82,408.79c1.61-.92,1.69-2.38.18-3.25a6.19,6.19,0,0,0-5.62.11l-35.66,20.58,5.45,3.14Z" style="fill:#37474f"></path><polygon points="177.17 435.66 177.17 429.38 171.72 426.23 171.72 432.52 177.17 435.66" style="fill:#455a64"></polygon><polygon points="177.17 435.66 178.53 434.88 178.53 428.59 177.17 429.38 177.17 435.66" style="fill:#263238"></polygon><path d="M159.14,444.92a2.84,2.84,0,0,0,2.84,4.93h0l2.49-1.44a1.42,1.42,0,0,0,.59-1.3,4.49,4.49,0,0,0-2-3.49,1.41,1.41,0,0,0-1.42-.14l-2.48,1.44Z" style="fill:#455a64"></path><path d="M163,443.62a1.41,1.41,0,0,0-1.42-.14l-2.48,1.44h0a2.82,2.82,0,0,0-1.42,2.37h0c.14-.79,1.32-1.47,2.7-2.26s2.58-.88,3.84,1.1c.92,1.45.32,2.16-.07,2.44l.28-.16a1.42,1.42,0,0,0,.59-1.3A4.49,4.49,0,0,0,163,443.62Z" style="fill:#37474f"></path></g></g><g id="freepik--Mullet--inject-13"><g id="freepik--mullet--inject-13"><g id="freepik--base--inject-13"><path d="M417.12,365.68c-22.5-13-59-13-81.48,0-11.25,6.49-16.84,15-16.82,23.52,0,2.63,0,6.18,0,8.81,0,8.51,5.57,17,16.82,23.52,22.5,13,59,13,81.48,0,11.26-6.5,16.84-15,16.82-23.52V389.2C434,380.68,428.38,372.17,417.12,365.68Z" style="fill:#37474f"></path><ellipse cx="376.38" cy="389.2" rx="57.62" ry="33.27" style="fill:#455a64"></ellipse><path d="M407.43,360.29c-17.15-9.9-44.95-9.9-62.09,0-8.58,4.95-12.84,11.44-12.82,17.92v5.84c0,6.49,4.24,13,12.82,17.93,17.14,9.9,44.94,9.9,62.09,0,8.57-5,12.83-11.44,12.82-17.93,0-2,0-3.83,0-5.84C420.26,371.73,416,365.24,407.43,360.29Z" style="fill:#37474f"></path><ellipse cx="376.38" cy="378.21" rx="43.91" ry="25.35" style="fill:#455a64"></ellipse></g><g id="freepik--mullet--inject-13"><g id="freepik--Mallet--inject-13"><path d="M403.15,314.94c-9.7-5.6-18-3.37-21.24,4.61-.63,1.53-3,7.35-3.61,8.78a18.14,18.14,0,0,0-1.18,6.79c0,11.67,8.2,25.86,18.3,31.69a18.18,18.18,0,0,0,6.49,2.38l9.34,1.25c8.57,1.19,14.66-4.87,14.66-16.09C425.91,339.84,415.72,322.2,403.15,314.94Z" style="fill:#37474f"></path><path d="M395.42,324.55c-10.1-5.83-18.3-1.1-18.3,10.57s8.2,25.86,18.3,31.69,18.3,1.1,18.3-10.56S405.53,330.39,395.42,324.55Z" style="fill:#263238"></path><path d="M372.4,326.09c3.56-2,8.45-1.74,13.87,1.38C397.14,333.75,406,349,406,361.57c0,6.28-2.21,10.67-5.77,12.72L366,394.23c-3.56,2.07-8.47,1.78-13.91-1.36-10.87-6.27-19.68-21.54-19.68-34.1,0-6.27,2.21-10.67,5.77-12.72C339.4,345.37,371.2,326.78,372.4,326.09Z" style="fill:#DDA9B2"></path><path d="M372.4,326.09c3.56-2,8.45-1.74,13.87,1.38C397.14,333.75,406,349,406,361.57c0,6.28-2.21,10.67-5.77,12.72L366,394.23c-3.56,2.07-8.47,1.78-13.91-1.36-10.87-6.27-19.68-21.54-19.68-34.1,0-6.27,2.21-10.67,5.77-12.72C339.4,345.37,371.2,326.78,372.4,326.09Z" style="fill:#fff;opacity:0.30000000000000004"></path><path d="M342.43,384.31l61-35.41A35.94,35.94,0,0,1,406,361.57c0,6.28-2.21,10.67-5.77,12.72L366,394.23c-3.56,2.07-8.47,1.78-13.91-1.36A35.81,35.81,0,0,1,342.43,384.31Z" style="fill:#DDA9B2;opacity:0.45"></path><path d="M352.12,347.4c-10.87-6.28-19.68-1.19-19.68,11.36s8.81,27.83,19.68,34.1,19.69,1.19,19.69-11.36S363,353.67,352.12,347.4Z" style="fill:#263238"></path><path d="M364.58,384.61c0-11.66-8.19-25.85-18.3-31.69a17.68,17.68,0,0,0-6.92-2.43c-.08,0-7.78-.88-9.44-1.08-8.43-1-14.4,5-14.4,16.13,0,14.51,10.19,32.15,22.76,39.41,9.57,5.53,17.76,3.42,21.12-4.31.68-1.57,3.23-7.46,3.85-8.87A17.73,17.73,0,0,0,364.58,384.61Z" style="fill:#37474f"></path><path d="M338.28,352.4c-12.57-7.26-22.76-1.37-22.76,13.14s10.19,32.15,22.76,39.41S361,406.32,361,391.81,350.84,359.65,338.28,352.4Z" style="fill:#455a64"></path><path d="M315.52,365.54a44.19,44.19,0,0,0,4.78,19.61,51.66,51.66,0,0,0,12.25,16.2,33.28,33.28,0,0,0,8.64,5.47,15.93,15.93,0,0,0,2.43.86l1.25.34c.42.09.85.14,1.28.21a13.79,13.79,0,0,0,5.16-.16,12.09,12.09,0,0,0,4.64-2.29c.32-.28.62-.6.93-.9l.46-.46.38-.52.77-1,.6-1.13a20.65,20.65,0,0,0,1.94-9.92l-.18,2.53-.4,2.49c-.24.81-.42,1.63-.7,2.42l-.48,1.16a5.79,5.79,0,0,1-.25.57l-.31.54-.61,1.09-.77,1-.38.49-.45.43c-.3.28-.59.58-.9.84a11.55,11.55,0,0,1-4.44,2,16.55,16.55,0,0,1-9.66-1.32,32.72,32.72,0,0,1-8.38-5.4,52.5,52.5,0,0,1-12.21-15.83,51,51,0,0,1-3.72-9.36A39.93,39.93,0,0,1,315.52,365.54Z" style="fill:#37474f"></path></g><path d="M383,376.79a9.87,9.87,0,0,1,6.15-6.48,3.16,3.16,0,0,1,3.13.42h0l17.95,17h0a3.13,3.13,0,0,1,.59,3.1,9.86,9.86,0,0,1-6.15,6.49,3.13,3.13,0,0,1-3.14-.44h0l-17.94-17h0A3.12,3.12,0,0,1,383,376.79Z" style="fill:#37474f"></path><path d="M383.63,379.92a3.12,3.12,0,0,1-.61-3.13,8.59,8.59,0,0,1,1.53-3.07l23.13,21.94a8.46,8.46,0,0,1-3,1.68,3.13,3.13,0,0,1-3.14-.44l-17.94-17Z" style="fill:#263238"></path><path d="M460.53,430.17h0l-47.22-41.63h0l-.05,0h0a4.11,4.11,0,0,0-4-.52,12.86,12.86,0,0,0-8,8.44c-.43,1.8-.1,3.22.79,4.06l43.78,45.39,0,0a10.76,10.76,0,1,0,14.73-15.68Z" style="fill:#DDA9B2"></path><path d="M460.71,430.33a5.23,5.23,0,0,1-5.12,8.58,5.32,5.32,0,0,1-2.2-1.14h0l-48.85-46.85a12.12,12.12,0,0,0-3.33,5.5c-.43,1.8-.1,3.22.79,4.06l43.78,45.39,0,0a10.67,10.67,0,0,0,4.95,2.76,10.77,10.77,0,0,0,10-18.28Z" style="opacity:0.2"></path></g></g></g></svg>